<?xml version="1.0" standalone="no"?>
<!DOCTYPE svg PUBLIC "-//W3C//DTD SVG 1.1//EN" "http://www.w3.org/Graphics/SVG/1.1/DTD/svg11.dtd" >
<svg xmlns="http://www.w3.org/2000/svg">
<metadata>
This is a custom SVG webfont generated by Font Squirrel.
Designer    : Fbio FAFERS   2002
Foundry     : FAFERS
Foundry URL : httpwwwevolutivaonlinecombr
</metadata>
<defs>
<font id="FAFERSHandwritingFontRegular" horiz-adv-x="682" >
<font-face units-per-em="2048" ascent="1638" descent="-410" />
<missing-glyph horiz-adv-x="904" />
<glyph unicode=" "  horiz-adv-x="904" />
<glyph unicode="&#x09;" horiz-adv-x="904" />
<glyph unicode="&#xa0;" horiz-adv-x="904" />
<glyph unicode="!" horiz-adv-x="460" d="M121 119.5q0 102.5 115 102.5t115 -102.5t-115 -102.5t-115 102.5zM168.5 695q19.5 389 39 550.5t184 138.5t145 -184t-92 -544t-184 -366.5t-92 405.5z" />
<glyph unicode="&#x22;" horiz-adv-x="727" d="M84 1340q-10 114 92.5 114t112.5 -114t3 -253.5t-62 -139.5t-95.5 139.5t-50.5 253.5zM405.5 1331.5q-20.5 105.5 82 105.5t123 -105.5t12 -245t-62.5 -139.5t-94 139.5t-60.5 245z" />
<glyph unicode="#" horiz-adv-x="1139" d="M21 475.5q0 74.5 99.5 74.5t136.5 181.5t-99.5 181.5t-136.5 74.5t151.5 74.5t195 214.5t118.5 214.5t31.5 -214.5t114 -214.5t201 214.5t119 214.5t32 -214.5t43 -214.5t86.5 -74.5t-101.5 -74.5t-139 -181.5t101.5 -181.5t139 -74.5t-154 -74.5t-197.5 -213 t-118.5 -213t-32 213t-114 213t-200.5 -213t-118.5 -213t-31.5 213t-41 213t-84.5 74.5zM407 731.5q-37 -181.5 120 -181.5t194.5 181.5t-120 181.5t-194.5 -181.5z" />
<glyph unicode="$" horiz-adv-x="1139" d="M-128 1127q2 49 33 108q68 74 191 125t269 80t298 37.5t279 -1.5q47 -20 89 -43t60 -71q19 -55 13.5 -84t-5.5 -83q-10 -68 -60.5 -85t-101.5 -18q-27 82 -74 108q-51 11 -146.5 11t-200 -10t-201 -29.5t-150.5 -46.5q-46 -52 -17.5 -100.5t58.5 -55.5 q239 -81 465.5 -180t416.5 -256q78 -74 113.5 -148.5t47.5 -148.5q16 -72 -17 -130.5t-98 -96.5q-266 39 -624.5 3.5t-490.5 125.5q-42 40 -72.5 74.5t-12.5 96.5q15 53 107.5 56.5t163 -70t308.5 -37t401 26.5q-52 85 -286.5 214t-449.5 186q-144 44 -205 123.5t-97 221.5 q-6 48 -4 97zM348 794q-96 940 105.5 886.5t201.5 -940t-105.5 -886.5t-201.5 940z" />
<glyph unicode="%" horiz-adv-x="1391" d="M16 1100v146q0 64 64.5 154t125.5 90h118q57 0 131 -80.5t74 -158.5v-155q0 -76 -75 -158t-130 -82h-108q-55 0 -127.5 81t-72.5 163zM144 1110q0 -58 37 -105.5t64 -47.5h55q28 0 64.5 47.5t36.5 110.5t-64.5 168.5t-92 105.5t-64 -47.5t-36.5 -111.5v-120zM145 28 q49 216 504.5 888t468.5 468.5t-109 -362.5q-749 -1167 -864 -994zM867 251v145q0 65 64.5 154.5t126.5 89.5h118q56 0 130 -80.5t74 -158.5v-154q0 -76 -74.5 -158t-129.5 -82h-110q-54 0 -126.5 81.5t-72.5 162.5zM1031.5 491.5q-36.5 -47.5 0.5 -215.5t64 -168h55 q28 0 64.5 47.5t36.5 110.5v121q0 58 -37 105t-64 47h-55q-28 0 -64.5 -47.5z" />
<glyph unicode="&#x26;" horiz-adv-x="1366" d="M88 404q0 136 87.5 245.5t261.5 192.5q-99 114 -132 185t-33 137q0 132 103.5 229.5t260.5 97.5q150 0 245.5 -92t95.5 -221q0 -209 -277 -357l263 -335q45 88 70 204l187 -40q-48 -192 -130 -316q101 -134 229 -225l-121 -143q-109 70 -225 207q-89 -99 -194 -148.5 t-227 -49.5q-225 0 -357 152q-107 124 -107 277zM282 415q0 -89 71 -185t201 -96q81 0 167.5 50.5t138.5 130.5l-330 409q-146 -87 -197 -161.5t-51 -147.5zM457 1181q0 -34 17.5 -71.5t52.5 -79.5l80 -93q117 69 151.5 121t34.5 115q0 75 -47.5 122.5t-118.5 47.5 q-73 0 -121.5 -47t-48.5 -115z" />
<glyph unicode="'" horiz-adv-x="391" d="M78 1344.5q-12 123.5 90.5 123.5t114.5 -123.5t-3 -258.5t-70.5 -135t-87.5 135t-44 258.5z" />
<glyph unicode="(" d="M116.5 873q22.5 206 65 349t83.5 235.5t135 218t158.5 125.5t42 -104t-42 -148.5t-50 -113.5t-48 -144t-39 -168.5t-44 -275t7.5 -497.5t126.5 -548.5t32 -232.5t-139 94t-162.5 278t-118 455t-7.5 477z" />
<glyph unicode=")" d="M132.5 1673.5q-53.5 112.5 11 112.5t170 -106.5t165.5 -248t98.5 -422.5t30.5 -548.5t-81 -470.5t-173.5 -312t-165 -109t51 240t127 579t4 474.5t-29 228t-38.5 167.5t-47.5 144t-50 114t-73 157.5z" />
<glyph unicode="*" horiz-adv-x="797" d="M89.5 1295q20.5 44 100 16t114.5 -31.5t26.5 70t14.5 117.5t72 34t47.5 -59.5t-3 -116.5t41.5 -48.5t109.5 40.5t70 -41.5t-40.5 -92t-105 -35.5t-30.5 -33.5t86 -94.5t6.5 -93.5t-89 -3t-79.5 90.5t-70.5 21t-65 -107.5t-93 -18t-1 114t83 94.5t-39.5 35.5t-120 55 t-35 86.5z" />
<glyph unicode="+" horiz-adv-x="1196" d="M114 742q0 103 218.5 49.5t176.5 188t83 245.5t96.5 -224t199.5 -194t211 -67t-235.5 -95.5t-176.5 -212.5t-83 -218t-91 212.5t-182.5 212.5t-216.5 103z" />
<glyph unicode="," horiz-adv-x="569" d="M180 115.5q0 114.5 115 114.5t115 -114v-178q0 -64 -45 -141.5t-93.5 -99t-76.5 22t3.5 57.5t62 68t32 105t-55.5 51t-57 114.5z" />
<glyph unicode="-" d="M65 530.5q0 90.5 276.5 90.5t276.5 -90.5t-276.5 -90.5t-276.5 90.5z" />
<glyph unicode="." horiz-adv-x="569" d="M180 112.5q0 111.5 111.5 111.5t111.5 -111.5t-111.5 -111.5t-111.5 111.5z" />
<glyph unicode="/" horiz-adv-x="543" d="M36.5 -4q-108.5 -9 104 749t353 650.5t-104 -749t-353 -650.5z" />
<glyph unicode="0" horiz-adv-x="1138" d="M13 772q22 342 90 729q38 78 146 58.5t132 -115.5q6 30 29 89t54 95q121 100 279 64q107 -40 195.5 -112t143.5 -195q71 -119 92 -238t18 -238q-4 -90 -52 -230t-130 -278.5t-192.5 -251t-237.5 -145.5q-100 -20 -256.5 28.5t-230.5 214.5q-105 263 -80 525zM248 596 q12 -76 24 -142q52 -208 139 -241.5t177 23.5t167.5 164t109.5 181q48 106 76 216.5t24 227.5l-24 98q-12 49 -23 98q-30 66 -94 171.5t-149 66.5q-106 -88 -144 -219t-53 -265q-4 -67 -25 -154.5t-59 -112.5q-66 21 -81 58q-22 56 -13 133t18 125q-17 -55 -33 -127 t-29 -125q-20 -100 -8 -176z" />
<glyph unicode="1" horiz-adv-x="875" d="M-33 137q99 46 195 71.5t196 53.5q6 146 13.5 293t14.5 294q-78 -50 -169 -380q4 -121 -111 -125q-47 8 -79.5 28t-21.5 78q99 264 157 569.5t108 638.5q31 43 101 48q99 0 126 -86q48 -333 69.5 -656.5t21.5 -648.5q118 2 225.5 -0.5t203.5 -43.5q-187 -61 -374 -122.5 t-373 -122.5l-106 -22q-53 -11 -106 -21q-91 30 -91 154z" />
<glyph unicode="2" horiz-adv-x="1095" d="M26 140q43 37 86.5 74t87.5 73q64 126 180.5 328t215.5 394.5t144.5 333.5t-32.5 146q-177 -12 -373 -238q-112 10 -135 109q98 198 233 257.5t347 83.5q238 -23 216 -195q-47 -287 -202.5 -582t-344.5 -621q233 21 400.5 17.5t341.5 -61.5q31 -44 27 -114 q-271 26 -531 -15.5t-547 -124.5q-22 -33 -91.5 33t-22.5 102z" />
<glyph unicode="3" horiz-adv-x="1126" d="M6 165q-34 50 45.5 66.5t160.5 -10.5q189 -50 355 -55.5t262 84.5q92 68 116.5 188.5t-29.5 242t-191.5 218.5t-367.5 118q-26 4 -45.5 11.5t-44.5 44.5q-69 56 -28 111q90 -6 198 27.5t186.5 82.5t106.5 102.5t-40 87.5q-134 33 -273.5 37t-282.5 -8q-88 -3 -106 105 q5 28 24.5 50t81.5 28q405 23 723 -67q87 -34 97 -96.5t-3 -142.5q-48 -102 -105 -162t-105 -104q193 -160 297 -295.5t130 -323.5q-17 -135 -97 -245.5t-198 -199.5q-59 -50 -191 -62.5t-272 4.5t-257 59.5t-147 103.5z" />
<glyph unicode="4" horiz-adv-x="943" d="M-3 1046q26 149 57 300t94 311q48 48 99 30q70 -8 73 -48q2 -77 -29 -200.5t-58 -247.5q-18 -69 -22 -138t14 -128q76 -108 172 -77q65 15 109 49t107 125q2 7 3.5 15.5t4.5 16.5q45 256 150 576q38 56 108 31q124 -9 94 -120q-128 -346 -181 -673t-60 -686 q-24 -111 -143 -192q-50 -36 -48 47q-3 193 0.5 380.5t28.5 376.5q-46 -59 -84 -79.5t-111 -42.5q-89 -7 -171 -0.5t-130 77.5q-39 51 -62 126t-15 171z" />
<glyph unicode="5" horiz-adv-x="1221" d="M-50 327q-7 46 25 90.5t116 51.5q54 -47 113.5 -94t134.5 -93q114 -50 242 -69t263 -27q86 11 127.5 98.5t53 192.5t0.5 195t-29 105q-20 100 -177 187.5t-409 115.5q-72 20 -135 47.5t-82 109.5q24 74 59 148.5t113 149.5q173 43 322 55.5t263 -14.5q52 -28 52 -54 t-17 -53q-45 -30 -108.5 -51t-159.5 -29q-122 12 -199.5 -8.5t-77.5 -98.5q28 -12 55.5 -28t58.5 -19q170 -21 286 -77.5t206 -128.5q229 -213 195 -538.5t-235 -481.5q-88 -17 -242 -7.5t-316 48.5t-301.5 108t-196.5 169z" />
<glyph unicode="6" horiz-adv-x="1063" d="M9 387q-50 382 150 792q62 132 135.5 263.5t239.5 262.5q186 -11 212 -95q-13 -40 -59 -78.5t-103 -77.5q-217 -290 -279 -582q56 27 113 54.5t149 18.5q349 -79 475 -312q65 -84 39.5 -168t-61.5 -167q-118 -122 -249 -213t-303 -89q-212 42 -309 149.5t-150 241.5z M265.5 470.5q-11.5 -47.5 11.5 -94.5q52 -152 217 -189q93 -11 160 37.5t126 117.5q41 74 55 148t-55 148q-54 67 -115 109t-148 9q-47 -41 -84.5 -82t-48.5 -81q-44 -47 -84 -27q-23 -48 -34.5 -95.5z" />
<glyph unicode="7" horiz-adv-x="893" d="M-42 1525q-7 24 19.5 39.5t64.5 14.5q211 -45 370.5 -41t372.5 45q34 3 68 6.5t69 6.5q20 -37 26.5 -73t-26.5 -73q-165 -303 -267 -609q16 -2 31.5 -3t31.5 -2q68 -3 117.5 -1.5t100.5 1.5q-53 -64 -139 -95t-184 -39q-18 -63 -27 -96q-31 -138 -53.5 -271t-8.5 -263 q-5 -54 -71 -80q-73 -2 -99.5 30t-36.5 76q20 300 98 603q-71 3 -134.5 13t-114.5 20q-46 20 -39 93q39 32 136 31q49 0 97.5 -1.5t95.5 -2.5q86 280 223 570q-56 -7 -98.5 -16t-96.5 -16q-101 -1 -293 1t-233 132z" />
<glyph unicode="8" horiz-adv-x="1008" d="M-22 548q4 91 12.5 181.5t50.5 190.5q19 28 31.5 77t50.5 85q-47 76 -55 178q-16 142 51 253q56 43 112 32q23 -12 45.5 -24t46.5 -22q75 77 153 91q87 14 142.5 -3t106.5 -38q58 -44 69.5 -88t7.5 -89q-14 -108 -72 -207q-11 -14 -23.5 -30t-22.5 -30q-11 -7 -13 -8 q161 -102 300.5 -246t75.5 -306q-53 -109 -142 -227t-212 -208q-141 -105 -342 -117.5t-310 212.5q-25 80 -45 162.5t-18 180.5zM182.5 521.5q8.5 -82.5 17.5 -162.5q4 -106 44.5 -147.5t100.5 -47.5q88 -10 176.5 40.5t176.5 122.5q60 81 108.5 163t63.5 172 q-4 100 -81 151.5t-164 97.5q-61 16 -133 23t-152 -50q-56 -45 -82 -96t-54 -104q-30 -80 -21.5 -162.5zM345 1255q7 -83 49 -126q78 3 136 63q72 74 90 149q8 35 0 60.5t-63 25.5q-46 -14 -90.5 -27.5t-89.5 -27.5q-54 -68 -32 -117z" />
<glyph unicode="9" horiz-adv-x="658" d="M-19 1080.5q-1 80.5 18 164.5q21 221 178 370q181 115 296 16q153 -125 211 -265q12 -353 -38 -678t-107 -638q-26 -62 -110 -56.5t-69 105.5q8 183 70 431.5t29 474.5q-44 -39 -89 -83.5t-122 -66.5q-167 -27 -232 79q-34 66 -35 146.5zM148 1174q-13 -131 26 -186 q46 -15 84.5 33t76.5 96q29 51 56 105t48 115q14 96 -54 162q-37 15 -108 -21q-51 -77 -81 -152.5t-48 -151.5z" />
<glyph unicode=":" horiz-adv-x="490" d="M110 128.5q0 124.5 124.5 124.5t124.5 -124.5t-124.5 -124.5t-124.5 124.5zM110 935q0 131 131 131t131 -131t-131 -131t-131 131z" />
<glyph unicode=";" horiz-adv-x="569" d="M182 125.5q0 124.5 124.5 124.5t124.5 -124v-194q0 -68 -48.5 -152.5t-101.5 -107.5t-83.5 24t4.5 62t67.5 74t34.5 114t-60 55t-62 124.5zM182 913.5q0 148.5 148.5 148.5t148.5 -148.5t-148.5 -148.5t-148.5 148.5z" />
<glyph unicode="&#x37e;" horiz-adv-x="569" d="M182 125.5q0 124.5 124.5 124.5t124.5 -124v-194q0 -68 -48.5 -152.5t-101.5 -107.5t-83.5 24t4.5 62t67.5 74t34.5 114t-60 55t-62 124.5zM182 913.5q0 148.5 148.5 148.5t148.5 -148.5t-148.5 -148.5t-148.5 148.5z" />
<glyph unicode="&#x3c;" horiz-adv-x="1196" d="M184.5 758q72.5 117 485.5 289t423 63t-412.5 -243.5t-10 -270.5t412.5 -253t-485.5 90.5t-413 324.5z" />
<glyph unicode="=" horiz-adv-x="1196" d="M114 516q0 99 484 99t484 -99t-484 -99t-484 99zM114 958.5q0 96.5 484 96.5t484 -96.5t-484 -96.5t-484 96.5z" />
<glyph unicode="&#x3e;" horiz-adv-x="1196" d="M174.5 300q-62.5 105 374.5 260.5t0 317.5t-361 251.5t427 -90t409.5 -289t-364.5 -332.5t-485.5 -118z" />
<glyph unicode="?" horiz-adv-x="1050" d="M3.5 1405.5q-39.5 -74.5 4.5 -128.5t167 -19q101 100 314 121t272 -73.5t-64.5 -156.5t-369 -203.5t-208 -351.5t223 -255.5t442.5 -4.5q34 33 58.5 62t9.5 81q-12 44 -41 56t-53 23q-386 -39 -375 104t404 257q117 37 166.5 103.5t78.5 185.5q5 40 3 81t-27 91 q-128 179 -286.5 224t-285.5 33.5t-266 -56.5q-38 -16 -83 -57.5t-84.5 -116zM314 87q0 128 205 161t205 -95t-205 -161t-205 95z" />
<glyph unicode="@" horiz-adv-x="1718" d="M0.5 365.5q-31.5 347.5 71.5 593.5t312 390t473 144t447.5 -101.5t292.5 -293t91 -456t-201 -516t-330.5 -215.5t-170.5 101t-29 77.5t-9 43t-33 -7t-105 -83t-112 -45.5h-80q-41 0 -119 52t-153 331t139.5 491.5t266.5 212.5h94q40 0 113.5 -45.5t100 -92t109.5 50 t141.5 43.5t-5.5 -233.5t-123.5 -371.5t-59.5 -199v-20q0 -14 19.5 -33.5t32.5 -19.5h38q25 0 65 30.5t163.5 395t-69.5 561.5t-341 197h-257q-109 0 -250 -124.5t-233 -325.5t-70.5 -549.5t363.5 -497t619 -53t318 158.5t125.5 63t60.5 -52.5t-139 -161.5t-274 -172.5 t-271 -63.5h-216q-103 0 -277 57t-335.5 224.5t-193 515zM522 394q0 -54 57 -114t93 -60h62q24 0 78.5 26.5t104 78.5t81 132.5t31.5 120.5v94q0 54 -59 113.5t-102 59.5h-70q-28 0 -77.5 -25.5t-96 -82.5t-74.5 -138.5t-28 -115.5v-89z" />
<glyph unicode="A" horiz-adv-x="1563" d="M-4 203q52 96 97 175q-22 -2 -32 -2q-31 14 -51 66q-12 31 -12 60q0 20 5 39q-3 20 -3 36q0 33 14 49q20 22 53 70q58 4 116 8.5t115 8.5q131 201 281 398q-3 3 -7 6t-7 7q-11 36 -11 71q0 52 23 103q45 46 91 48q8 0 16 1q38 0 75 -10q9 11 18.5 22t19.5 23q29 11 56 11 q59 0 107 -53q30 -42 36 -84q6 -36 6 -70v-11q-4 -6 -8 -10.5t-7 -9.5q111 -98 214 -204.5t198 -214.5q45 -2 123.5 -3t124.5 -2q87 -14 129 -116q13 -26 13 -50q0 -42 -41 -77q-64 -54 -88 -72q30 -39 58 -76t54 -72q57 -48 57 -104q0 -52 -17 -131q-18 -29 -52 -29 q-27 0 -64 19q-103 87 -201 186.5t-194 204.5q-259 0 -455 -3q-84 -1 -172 -1q-119 0 -247 2q-120 -150 -214 -298q-45 -82 -107 -82q-15 0 -31 5q-79 35 -79 152v14zM601 693q248 7 496 11q-70 73 -138.5 146.5t-138.5 147.5q-55 -77 -110 -153.5t-109 -151.5z" />
<glyph unicode="B" horiz-adv-x="1426" d="M24 112q-19 19 -19 38q0 40 85 81q38 -1 111 -3q-57 138 -61 276q-1 25 0 50q0 109 12 202q16 114 34 192q11 48 12 75q0 17 -5 26q-106 112 -106 186q-1 51 47 83q116 80 322 80q4 0 8 -1q211 -1 415 -75q199 -73 199 -193v-6q-3 -58 -56 -129.5t-188 -156.5 q285 -57 427.5 -139.5t256.5 -242.5q29 -52 29 -100q0 -148 -285 -249q-251 -46 -501 -83q-159 -24 -319 -24l-181 8q-64 1 -126 12t-111 93zM421 1105q-2 -12 -2 -29q-1 -32 7 -80q9 -54 9 -87q0 -11 -1 -20q44 -13 90 -13q82 0 174 40q124 53 124 152q0 17 -3 34 q-6 28 -60 37q-39 6 -84 6q-18 -1 -37 -1q-67 -4 -130 -15t-87 -24zM432 400q-3 -27 -3 -52q0 -74 27 -141h20q166 -1 302 15q144 16 324 49q194 46 194 125q0 20 -13 43q-200 117 -398.5 147.5t-433.5 37.5q-7 -120 -19 -224z" />
<glyph unicode="C" horiz-adv-x="1763" d="M14 564q-10 48 -10 95q0 89 37 173q133 256 380.5 360.5t555.5 150.5q122 -3 176.5 -20.5t82.5 -39.5q79 -63 79 -124q0 -17 -6 -35q-87 -32 -193 -34q-45 -1 -88 0q-57 0 -111 1q-228 -66 -345.5 -126t-231.5 -166q-52 -48 -52 -119q0 -10 1 -20q8 -84 43 -136 q151 -162 366 -214q82 -21 138 -20h26q62 6 161 41q138 47 327.5 102.5t423.5 79.5h15q105 0 117 -92q7 -19 7 -37q1 -20 -9 -38q-18 -34 -49 -52q-219 -24 -407.5 -104.5t-408.5 -146.5q-117 -35 -196 -41q-12 -1 -24 -1q-72 0 -173 27q-315 84 -511 281q-91 115 -121 255z " />
<glyph unicode="D" horiz-adv-x="1914" d="M4 1312q29 60 173 73q62 5 131 5q90 0 194 -10q182 -16 364 -52t287 -73q66 -24 118 -50.5t108 -56.5q194 -105 329 -232.5t189 -230.5q24 -49 23 -98q0 -55 -30 -109q-58 -102 -203 -200q-194 -102 -400.5 -169t-428.5 -88q-125 -17 -245 -17h-5q-118 0 -229 25 q-76 22 -107.5 62t-48.5 88q4 55 60.5 80.5t129.5 42.5q62 -8 140 -12q-94 168 -125 366q-12 79 -12 162v30q2 100 8 195q-66 23 -146 32.5t-138 39.5q-64 31 -104 79q-33 39 -34 93q0 12 2 25zM669 1052q-5 -35 -6 -70q0 -90 35 -182q48 -130 61 -249q3 -70 3 -119v-16 q0 -53 -40 -114q55 2 124 2h72q7 0 13 -1q104 0 180 22q140 40 214.5 85.5t146.5 113.5q44 41 51 70q1 6 1 13q0 27 -21 69q-29 53 -107 144t-159 142q-105 69 -258.5 70.5t-309.5 19.5z" />
<glyph unicode="E" horiz-adv-x="2031" d="M8 1276q13 48 103 86q0 40 24 74q59 36 109 36q74 0 128 -78q1 -7 3 -13.5t5 -12.5q226 0 454 1.5t457 3.5q201 -17 292 -119v-10q-1 -58 -53 -91q-58 -35 -135 -58q-130 4 -260 4q-114 0 -227 -3q-243 -7 -485 -26q0 -82 6 -182q215 30 416 29h59q228 -5 449 -24 q146 -36 238 -126q13 -23 13 -45q0 -44 -48 -86q-157 6 -313 6q-121 0 -243 -4q-278 -8 -552 -50q5 -60 10.5 -119.5t12.5 -118.5q457 54 847.5 77t836.5 23q89 -2 174 -34q32 -30 32 -74q0 -8 -1 -16q-7 -56 -46 -87q-530 -82 -980.5 -108t-905.5 -136q-95 1 -154 83 q-36 28 -36 75q0 33 18 76q-78 164 -93 302q-2 12 -4 25.5t-3 27.5q-8 4 -7 2q-50 55 -50 109q0 36 22 72q4 5 12 14q-11 136 -14 273q-92 52 -109 124q-8 27 -8 53q0 23 6 45z" />
<glyph unicode="F" horiz-adv-x="1686" d="M4 1128q-8 24 -8 46q0 58 53 111q402 69 796.5 74t789.5 8h23q111 0 183 -36q74 -37 74 -97v-9q-3 -85 -344 -85q-258 -7 -518 -26t-521 -46q-28 -46 -36 -96q-1 -8 -1 -16q0 -43 33 -90v-2q162 7 319 8q108 0 214 -4q259 -9 510 -30q96 -8 131 -42q32 -31 32 -74v-8 q-51 -78 -188 -99q-129 6 -259 6q-119 0 -239 -5q-250 -11 -502 -36q8 -102 19.5 -204.5t29.5 -204.5q3 -26 3 -52q0 -13 -1 -25q-2 -38 -26 -76q-46 -17 -80 -17q-21 0 -38 7q-58 78 -89 157t-53 159q-13 55 -25.5 111t-24.5 113q-2 0 -3.5 -0.5t-2.5 -0.5q-65 45 -89 117 q-12 39 -12 78v11q2 44 53 83q-17 106 -26 192q-4 -1 -8 -1.5t-7 -0.5q-132 18 -162 102z" />
<glyph unicode="G" horiz-adv-x="1676" d="M39 501q-46 109 -46 225q0 125 54 257q88 207 251 303t386 116q89 10 157 10q34 0 63 -2q88 -8 160 -23q97 -11 178 -43t133 -102q22 -28 29 -63t7 -68q0 -82 -49 -86q-12 -1 -24 -1q-36 0 -67 9q-50 14 -94.5 40.5t-94.5 41.5q-175 33 -352 41q-14 1 -29 1 q-157 0 -260 -80q-90 -47 -164 -238q-24 -63 -24 -127q0 -128 100 -259q57 -125 219 -164t264 -42q125 10 229 75.5t147 145.5q26 43 35 86.5t15 87.5q-85 63 -286 114q-159 41 -303 41q-36 0 -72 -3q-78 10 -101 74.5t-36 106.5q98 40 272 40q49 0 105 -3q251 -15 361 -78 q375 -145 460 -359q47 -120 47 -280q0 -125 -29 -275q-3 -16 -42 -34q-30 -14 -62 -14q-11 0 -22 2q-52 6 -68 21q-25 22 -24.5 27.5t5.5 53.5q10 91 21 155q4 25 4 58q0 50 -10 118q-66 -88 -157.5 -188.5t-192.5 -165.5q-68 -44 -120 -53q-47 -9 -113 -9h-14 q-135 1 -289 23t-261 115q-200 144 -296 372z" />
<glyph unicode="H" horiz-adv-x="1718" d="M16 683q-8 39 -8 69q0 52 26 74q40 34 103 39q0 127 12 254t59 254h11q171 0 173 -154v-101v-98q-9 -79 -11 -152q39 1 90 1q96 -1 238 -5q38 -1 76 -1q176 0 340 29q78 14 159 46q-7 118 -7 242q1 34 1 69q2 160 37 288q19 2 37 2q144 0 158 -141q4 -49 8.5 -99t8.5 -99 q-2 -34 -1.5 -72t1.5 -82q43 5 77 13q13 3 27 3q24 0 51 -9q2 1 4 1l48 -68q2 -12 2 -25q0 -58 -54 -114q-19 -47 -144 -92q11 -161 25.5 -317t30.5 -258q7 -62 23 -101q9 -22 9 -49q0 -20 -5 -43q1 -3 1 -6q0 -24 -63 -51q-17 -5 -35 -5q-53 0 -109 46q-26 143 -61.5 355 t-52.5 363q-251 -54 -441 -54h-32h-24q-86 0 -186 -12q-114 -14 -230 -16q5 -81 5 -162t6 -162q1 -26 1 -50q0 -100 -23 -171q1 -3 1 -5q0 -23 -67 -47q-12 -2 -24 -2q-58 0 -115 54q-15 143 -23.5 285.5t-12.5 285.5q-66 17 -120 50z" />
<glyph unicode="I" horiz-adv-x="403" d="M-1 760v32q0 373 88 623q25 37 75 60q23 11 47 11q27 0 54 -14q53 -40 67.5 -80.5t16.5 -79.5q-39 -279 -47 -613q-1 -21 -1 -42q0 -309 112 -551q7 -21 7 -43q0 -37 -20 -73q-42 -35 -86 -35q-30 0 -60 16q-52 17 -81 46.5t-68 85.5q-100 263 -104 657z" />
<glyph unicode="J" horiz-adv-x="1270" d="M9 333q-6 19 -6 37q0 25 10 49q32 19 65 19q36 0 73 -21q86 -29 136.5 -61t90.5 -63q52 -41 120.5 -53.5t134.5 -29.5q38 -10 69 -10q64 0 96 42q36 46 36 171q0 47 -5 104q-16 173 -54.5 354t-121.5 374q-35 -3 -70.5 -3t-70.5 -1q-38 4 -75 4q-15 0 -29 -1h-7 q-46 0 -67 27q-48 43 -51 142q9 7 14 15t15 14q4 17 54 22t116 8q262 -13 517.5 -17t514.5 -5q94 -19 91 -95q1 -39 -54 -67q-175 -8 -344 -15.5t-338 -15.5q27 -111 55 -222l56 -222q21 -122 37.5 -245t19.5 -246v-20q0 -132 -51 -214q-54 -87 -208 -87q-90 7 -179 22.5 t-179 47.5q-178 67 -369 192q-29 27 -42 70z" />
<glyph unicode="K" horiz-adv-x="1396" d="M5 762q-2 54 -2 108q1 76 5 152q8 130 22 262q11 37 32 75.5t70 76.5q18 2 34 2q59 0 80 -30q46 -42 54 -84q4 -25 4 -50q0 -16 -2 -33q-9 -70 -16.5 -139.5t-11.5 -138.5q73 61 149 143t149 138q119 84 245 108q72 -2 107.5 -27t53.5 -63q12 -30 9 -47.5t-14 -44.5 q-34 -12 -78.5 -26t-107.5 -23q-111 -50 -182.5 -115.5t-144.5 -132.5q-50 -49 -89.5 -105t-76.5 -108q133 -14 265 -32q125 -17 258 -17h15q132 -18 226 -57.5t161 -81.5q133 -74 183 -176q-3 -25 -3 -41.5t-40 -36.5q-33 -10 -57 -10q-12 0 -20 2q-28 8 -55 28 q-38 43 -96.5 75t-107.5 53q-71 18 -156 29t-179 17q-81 6 -160 6h-34q-58 -1 -115 -1h-74q35 -167 109 -310q1 -6 1 -11q0 -49 -50 -88q-25 -6 -46 -6q-30 0 -51 12q-55 80 -100.5 161t-88.5 162q-31 101 -57 203q-19 78 -19 166q0 27 2 56z" />
<glyph unicode="L" horiz-adv-x="1459" d="M9 280q0 217 2.5 434.5t24.5 435.5q-4 77 -27 152v6q0 46 74 95q13 1 26 1q99 0 148 -70q43 -50 47 -166q1 -20 1 -42q0 -101 -16 -229q-22 -189 -22 -374q0 -130 11 -259q247 55 512 90q160 21 298 21h276q109 -35 109 -100q0 -10 -3 -21q-6 -51 -53 -80 q-131 -11 -269 -24t-300 -34q-153 -22 -282.5 -52.5t-250.5 -63.5q-20 -2 -41 -2l-41 2q-41 4 -81 32q-76 42 -103.5 107.5t-39.5 140.5z" />
<glyph unicode="M" horiz-adv-x="1505" d="M2 167q29 380 79.5 589t113.5 477q138 0 201 -58q90 -153 152.5 -333t114.5 -370q17 -20 34 -38.5t34 -36.5q98 164 175 376q46 184 101.5 363.5t101.5 363.5q37 8 73 8q77 0 143 -40q47 -420 59.5 -744.5t143.5 -710.5q-57 -28 -108 -28q-13 0 -25 2q-108 32 -143 84 q-62 162 -72.5 293.5t-36.5 330.5q-51 -135 -129.5 -290t-128.5 -289q-87 -41 -160 -41q-27 0 -53 6q-140 109 -183.5 246.5t-143.5 331.5q-66 -234 -78 -330.5t-23 -286.5q-57 -48 -114 -48q-30 0 -61 14q-41 27 -53 69t-14 90z" />
<glyph unicode="N" horiz-adv-x="1367" d="M4 185q31 412 86 638t123 515q147 0 217 -63q98 -202 207.5 -458.5t255.5 -419.5q52 85 69.5 194.5t60.5 226.5q49 197 58.5 336.5t58.5 338.5q42 10 81 10q82 0 153 -44q2 -14 2 -37q0 -34 -4 -90q-6 -92 -17.5 -203t-28 -220.5t-33.5 -175.5q-55 -146 -112.5 -332 t-111.5 -331q-59 -27 -116 -27h-15q-64 4 -108 13q-113 131 -241.5 305t-199.5 317q-84 -199 -97 -311t-26 -317q-61 -52 -124 -52q-34 0 -67 15q-43 29 -56 75t-15 97z" />
<glyph unicode="O" horiz-adv-x="1491" d="M6 743q27 197 133 364t223 270q6 5 15 5q27 0 79 -51q16 -16 32 -16q14 0 30 12q33 26 53 40q0 9 -2 21t2 21q24 60 94 91.5t136 31.5q291 0 484 -224.5t257 -571.5q4 -47 4 -92q0 -283 -175 -454q-203 -198 -618 -205h-32q-393 -1 -575 191q-150 157 -151 419 q0 70 11 148zM260 591v-13q0 -266 156 -302q110 -26 229 -26q53 0 108 5q40 -5 78 -5q199 0 351 148q131 129 130 269q0 52 -18 106q-10 153 -127.5 332t-282.5 202q-270 -104 -468 -267q-163 -134 -163 -352q0 -47 7 -97z" />
<glyph unicode="P" horiz-adv-x="1418" d="M-61 1303q-1 5 -1 10q0 45 46 102q116 70 233.5 94t235.5 24q34 2 67 2q150 0 276 -38q154 -46 298 -104q153 -77 228.5 -166t99.5 -197q-7 -148 -113.5 -259t-267.5 -210q-147 -62 -286.5 -100.5t-284.5 -39.5q10 -83 18.5 -167t16.5 -169q8 -15 8 -29q0 -44 -67 -89 q-42 -4 -83 -6h-4l-78 41q-29 96 -56 195t-40 211q-79 367 -140 772q-5 -3 -9 -5.5t-8 -4.5q-76 38 -89 133zM257 1226q37 -86 68.5 -172.5t47.5 -169.5q17 -120 46 -243q117 9 222.5 24.5t210.5 71.5q283 129 293 294q-33 145 -218 182.5t-353 61.5q-175 0 -317 -49z" />
<glyph unicode="Q" horiz-adv-x="1364" d="M-2 713q-1 10 -1 21q0 109 24 219q60 311 400 543q96 45 183 45q27 0 52 -4q111 -18 217 -62q272 -137 364 -358q35 -172 35 -332v-17q-2 -168 -55 -318q-20 -31 -41 -62.5t-42 -61.5q36 -16 71.5 -32.5t72.5 -33.5q95 -48 95 -96q0 -6 -2 -12q-20 -52 -88 -52 q-7 0 -15 1q-68 17 -135.5 33.5t-138.5 35.5q-105 -93 -254 -151q-106 -27 -212 -31h-17q-97 0 -192 41q-104 75 -193.5 171t-109.5 276q-16 118 -18 237zM246 530q92 16 174 16q76 0 144 -14q178 -35 313 -109q31 48 60 81q59 47 85 210q11 70 11 140q0 91 -19 181 q-34 158 -140 250q-51 45 -127 45q-79 0 -183 -48q-23 -13 -23 -44q0 -22 11 -54q12 -31 12 -50q0 -26 -22 -28q-54 -5 -117 -8.5t-81 -35.5q-53 -95 -73.5 -206.5t-22.5 -235.5q-3 -36 -3 -64q0 -14 1 -26zM277 335q42 -108 128 -109q55 -13 91 -13q17 0 30 3q39 9 106 32 q25 6 53 16q-42 12 -79 27q-77 22 -160.5 31t-168.5 13z" />
<glyph unicode="R" horiz-adv-x="2178" d="M-5 1204q11 121 222 166v1q124 8 239 8q296 0 532 -54q326 -75 519 -284q32 -50 32.5 -106t-32.5 -119q-76 -76 -205 -153t-229 -137q315 -61 658 -136.5t626 -190.5q54 -50 54 -99q0 -34 -26 -67q-10 -49 -62 -49q-13 0 -31 4q-80 17 -183 54q-403 109 -804.5 169 t-917.5 95q2 -46 8 -71.5t9 -65.5q-15 -63 -47.5 -113.5t-123.5 -61.5q-111 47 -133 128q-42 226 -75 540q-30 287 -30 503v39zM273 1110q5 -106 12 -219.5t15 -227.5q31 -2 47 -5q64 0 181.5 4t188.5 16q134 49 265.5 97t249.5 150q4 14 4 26q0 22 -14 35q-22 21 -45 31 q-95 41 -332.5 65t-571.5 28z" />
<glyph unicode="S" horiz-adv-x="1433" d="M-12 1134q3 49 44 108q90 74 253 125t356 80t395 37q93 4 178 4q101 0 191 -5q63 -20 118.5 -43t79.5 -71q20 -43 20 -70q0 -8 -2 -14q-7 -29 -7 -83q-13 -68 -80 -85t-135 -18q-36 82 -98 108q-68 11 -194 11t-264.5 -10t-266.5 -29.5t-200 -46.5q-38 -32 -38 -63 q0 -19 15 -37q38 -48 77 -56q317 -81 617 -180t552 -256q103 -74 150.5 -148.5t63.5 -148.5q7 -23 7 -45q0 -46 -30 -86q-44 -58 -130 -96q-204 23 -378 23q-127 -1 -237 -13q-262 -28 -645 -31q-56 41 -96 75q-25 22 -25 53q0 19 9 43q19 53 66.5 67t87.5 27q213 34 462 38 q77 1 151 1q165 0 314 -7q-70 85 -380.5 214t-594.5 186q-191 44 -272 123.5t-129 221.5q-6 35 -6 70q0 14 1 27z" />
<glyph unicode="T" horiz-adv-x="1570" d="M-46 1355q141 47 303 65.5t303 37.5q211 12 374 13q98 0 178 -5q214 -12 293 -20q136 -24 196 -61.5t95 -78.5q4 -14 4 -27q0 -39 -41 -68q-133 35 -249.5 44.5t-378.5 10.5q-31 -4 -62.5 -9t-61.5 -8q-13 -249 -17 -591q-1 -76 -1 -146q0 -246 11 -421q6 -21 6 -38 q0 -45 -43 -56q-61 10 -135.5 70t-107.5 136q-16 61 -26 123q-8 48 -8 97q0 15 1 29q-9 133 -9 379.5t8 386.5q-117 -17 -255 -32.5t-254 -31.5q-90 43 -104 89q-25 35 -25 73q0 19 6 39z" />
<glyph unicode="U" horiz-adv-x="1156" d="M11 829q8 133 30.5 268t130.5 271q31 -10 60.5 -1t50.5 -22q22 -12 33.5 -56.5t15.5 -80.5q-47 -169 -47 -337v-36q6 -186 30 -384q13 -70 50 -105t83 -59q101 16 209.5 75.5t198.5 335.5q18 112 20 224q0 11 1 22q0 101 -21 202q-22 90 -49.5 178.5t-57.5 178.5 q-4 24 -4 47q-1 21 3 41q6 41 54 66q61 -13 114.5 -40t83.5 -97q162 -317 162 -596q0 -16 -1 -33v-24q1 -123 -37 -229q-42 -117 -91 -229q-98 -155 -215.5 -273t-287.5 -147q-267 31 -406 262q-65 144 -89 288.5t-24 289.5z" />
<glyph unicode="V" horiz-adv-x="1111" d="M-17 1325q1 72 46 72q5 0 10 -1q129 -49 157 -143q55 -208 119.5 -452t144.5 -429q32 -99 70.5 -99t79.5 34q86 137 147 332.5t113 422.5q14 122 33 251t19 253q19 58 53 58q15 0 33 -12q58 -38 106 -90q44 -60 44 -116t-7 -115q-57 -311 -167.5 -684.5t-326.5 -569.5 q-76 -49 -136.5 -49t-106.5 49q-160 257 -257.5 616.5t-173.5 671.5z" />
<glyph unicode="W" horiz-adv-x="1482" d="M-19 1335q22 70 74 70q10 0 22 -3q81 -29 101.5 -64.5t20.5 -73.5q18 -51 34.5 -168.5t26 -247.5t10.5 -245v-19q0 -100 -10 -141q35 96 65 195.5t46 205.5q39 27 79 27q36 0 73 -22q68 -30 128.5 -159.5t120.5 -281.5q51 -138 121 -191q27 -20 58 -21q51 0 115 54 q96 91 136 203t56 234q1 17 1 36q-1 94 -17 248q-20 185 -66 315q-8 57 -8 105q0 17 1 34q4 61 54 68q28 6 50 6q25 -1 43 -9q32 -16 54 -43q65 -177 93.5 -421t32.5 -410q-35 -240 -138 -414.5t-288 -234.5q-13 -1 -26 -1q-185 0 -306 110q-130 116 -210 321 q-102 -275 -178 -353q-66 -69 -122 -68q-8 0 -15 1q-66 30 -111.5 105.5t-49.5 198.5q3 37 2.5 91t-2.5 125q-5 143 -16 301t-26 306t-29 231z" />
<glyph unicode="X" horiz-adv-x="1255" d="M-4 1344q-4 14 -4 27q0 27 17 54q26 17 52 17q13 0 27 -4q40 -13 78 -39q94 -93 163.5 -165.5t144.5 -149.5q173 231 362 412q29 13 52 13q43 0 69 -43q33 -32 35 -66q1 -10 1 -20q0 -23 -4 -46l-170 -216q-85 -108 -169 -216q91 -105 251.5 -286.5t234.5 -265.5 q82 0 127 -41q5 -20 5 -41q0 -36 -16 -71q-31 -23 -72 -23q-96 0 -244 129q-211 184 -424 424q-6 -8 -12.5 -16.5t-13.5 -15.5q-89 -139 -166 -282t-102 -302q-55 -89 -102 -112q-78 17 -97 76q-23 56 -23 119q0 82 39 176q74 140 152 276t164 265q-100 114 -182 208.5 t-134 143.5q-26 41 -39 81z" />
<glyph unicode="Y" horiz-adv-x="1020" d="M20 1379q28 20 55 20q24 0 48 -15q76 -178 188 -313q78 -116 144 -142.5t128 -29.5q67 187 114 316t132 326q18 17 40 17q28 0 63 -27q80 -47 89 -112q-55 -129 -66 -196.5t-59 -187.5q-132 -211 -206 -430.5t-133 -441.5q-39 -175 -112 -187h-9q-63 0 -77 67 q-11 37 -11 74q0 18 2 37q9 56 28 112q69 240 150 473q-75 3 -150 37q-159 109 -251 277q-55 78 -96 159q-24 46 -24 95q0 35 13 72z" />
<glyph unicode="Z" horiz-adv-x="1770" d="M-152 200q-1 5 -1 9q0 51 83 125q237 204 505 397.5t567 398.5q-14 86 -242 98q-83 4 -175 5q-159 0 -342 -13q-89 40 -116 130q-8 18 -8 40q1 12 3 26q6 38 15 65q145 16 283 17q38 0 78 -2q174 -6 352 -33q351 -84 440 -261q8 -22 8 -46q0 -167 -387 -441 q-296 -151 -506 -369q185 14 366 14q219 0 433 -20q388 -36 760 -126q56 -17 76 -106q-65 -66 -145 -66h-7q-386 21 -788 28q-30 1 -61 1q-382 0 -872 -82q-71 10 -139.5 32t-128.5 81q-43 44 -51 98z" />
<glyph unicode="[" horiz-adv-x="569" d="M62 684q11 1091 253.5 1091t242.5 -74.5t-130.5 -78t-141.5 -945.5t119.5 -938.5t130.5 -71t-242.5 -74.5t-231.5 1091z" />
<glyph unicode="\" horiz-adv-x="531" d="M60 1686q159 -33 334 -872t103 -839t-334 872t-103 839z" />
<glyph unicode="]" horiz-adv-x="569" d="M17 1715.5q0 74.5 235.5 74.5t246.5 -1098.5t-224.5 -1098.5t-235.5 74.5t108.5 74.5t156.5 905.5t-119.5 949.5t-167.5 118.5z" />
<glyph unicode="^" horiz-adv-x="961" d="M146.5 690q-92.5 0 84 400.5t249 400.5t250 -400.5t87 -400.5t-214 298.5t-243.5 0t-212.5 -298.5z" />
<glyph unicode="_" horiz-adv-x="1139" d="M-31 -342q0 65 596.5 65t596.5 -65t-596.5 -65t-596.5 65z" />
<glyph unicode="`" d="M214.5 1332.5q-105.5 138.5 15 138.5t178 -138.5t-15 -138.5t-178 138.5z" />
<glyph unicode="a" horiz-adv-x="1221" d="M13 263q-12 70 -12 141q0 115 31 232q61 142 157 220t214 118q34 13 72 13q57 0 125 -29q112 -48 215 -145q95 -169 195 -304.5t211 -218.5q17 5 32 5q41 0 75 -32q23 -35 23 -69q0 -29 -16 -57q-42 -12 -84 -12t-85 12q-93 34 -179.5 85.5t-162.5 110.5 q-135 -186 -354 -314q-64 -15 -126 -17h-8q-58 0 -114 32q-97 52 -140.5 110t-68.5 119zM254 486q-34 -78 -34 -132q0 -64 46 -98q24 -16 47 -17q25 0 47 20q44 37 95 89q113 161 170 282q8 24 8 47q0 57 -51 101q-13 2 -25 2q-78 0 -169 -73q-60 -53 -134 -221z" />
<glyph unicode="b" horiz-adv-x="1151" d="M-6 215q13 60 39 74.5t56 14.5q153 -21 307 -43q121 -17 243 -17q33 0 66 1q152 4 226 106q7 33 7 67q0 28 -4 56q-10 63 -89 133q-81 45 -166 45h-5q-88 -2 -179 -32q-76 -42 -88 -93q-16 -60 -39 -100.5t-49 -92.5q-52 0 -85 6.5t-59 15.5q-108 53 -115 158 q25 247 51.5 495t96.5 496q14 46 81 46q26 0 59 -7q72 -26 89.5 -53t17.5 -54q-33 -135 -39 -281q-2 -54 -2 -107q0 -89 7 -174q54 2 103 3q94 0 172 -10q118 -14 228 -57q86 -56 153.5 -123t104.5 -150q15 -83 15 -168q-1 -20 -1 -40q-4 -105 -59 -208q-61 -92 -150 -106.5 t-183 -17.5q-181 8 -360.5 33.5t-359.5 60.5q-53 20 -70 52.5t-20 70.5z" />
<glyph unicode="c" horiz-adv-x="1296" d="M9 609q139 280 466 461q75 29 145 29q101 0 193 -60q72 -41 83 -80q6 -21 6 -43q0 -18 -4 -35q-53 -47 -112 -47q-45 0 -94 28q-227 -110 -308 -222q-64 -70 -70 -149q-1 -19 -1 -38q0 -58 13 -110q11 -76 109 -76q15 0 29 1q126 12 282.5 62t302.5 106.5t202 59.5 q22 3 42 3q102 0 130 -75q19 -21 19 -41q0 -4 -1 -9q-5 -25 -9 -50q-237 -117 -467.5 -196t-457.5 -133h-3q-254 0 -398 183q-109 138 -109 312q0 58 12 119z" />
<glyph unicode="d" horiz-adv-x="975" d="M1 422q10 96 35 192q29 60 76 113t126 94q75 27 139 27q29 0 55 -6q84 -18 161 -53q27 119 55.5 240t58.5 242q25 136 172 279q71 -10 115 -28t80 -39q8 -65 8 -122q0 -59 -9 -111q-17 -100 -43 -227q-36 -153 -81.5 -296t-109.5 -260q1 -22 1 -51q0 -5 -0.5 -15.5 t-0.5 -16.5q0 -47 25 -85q48 -31 76 -61t48 -60q2 -47 -65 -74q-14 -3 -29 -3q-46 0 -100 26q-43 13 -96.5 36.5t-94.5 57.5q-65 -68 -132 -130.5t-152 -100.5q-20 -2 -38 -2q-45 0 -75 14q-40 18 -72 44q-68 40 -86 86t-33 92q-17 72 -17 141q0 29 3 57zM220 311 q-3 -10 -3 -21q0 -38 38 -79q79 11 161.5 147t125.5 212q2 6 2 11q0 33 -53 67q-31 14 -63 14q-52 0 -109 -35q-50 -79 -67.5 -157.5t-31.5 -158.5z" />
<glyph unicode="e" horiz-adv-x="1043" d="M-4 615q15 21 59.5 30.5t65.5 29.5q63 58 129 116.5t148 107.5q133 63 218 65q21 0 42 1q62 0 120 -5q140 -28 212 -100q55 -73 55 -145q0 -31 -10 -61q-102 -91 -218 -154.5t-240 -108.5q-76 -39 -151 -51.5t-150 -16.5v-9q0 -35 27 -57q20 -16 53 -16q19 0 42 5 q117 45 234.5 80.5t234.5 80.5q66 28 109 27.5t64 -27.5q76 -43 76 -86q0 -18 -14 -36q-148 -50 -240.5 -101t-150.5 -100q-106 -70 -213 -80q-50 -4 -99 -4q-57 0 -113 6q-122 28 -228 201q-39 100 -41 203.5t-21 204.5zM326 532q38 3 113 11q96 45 185 92t161 105 q-41 12 -81 24q-10 3 -22 4q-37 0 -94 -28q-97 -53 -155.5 -105t-106.5 -103z" />
<glyph unicode="f" horiz-adv-x="996" d="M-55 -297q10 38 33 47q24 -16 55 -26q8 -3 19 -3q30 0 81 22q68 147 86.5 301t36.5 308q0 10 0.5 7.5t1.5 8.5q-43 -14 -114.5 -27t-125.5 -16q-50 23 -71 52q-5 16 -5 34q0 43 33 92q73 18 147.5 33t145.5 38q16 374 66 717q86 208 282 291q34 5 72 5q57 0 122 -11 q110 -18 147 -49q52 -87 52 -173q0 -11 -1 -21q-11 -54 -57 -77q-15 -6 -41 -6q-27 0 -66 6q-75 13 -89 40q8 32 20.5 52.5t-18.5 44.5q-119 -6 -143 -237q-7 -129 -15 -259t-16 -257q157 50 270 50h4q48 -11 97 -38q33 -47 33 -96q0 -11 -2 -22q-49 -33 -89 -33 q-17 0 -33 6q-27 -3 -54 -4t-52 -1q-63 -16 -107 -27t-85 -20q-15 -144 -29 -288t-27 -286q-19 -56 -35 -111t-33 -110q-54 -76 -118 -85q-37 -13 -94 -13q-62 0 -147 16q-140 25 -140 101q0 11 3 24z" />
<glyph unicode="g" horiz-adv-x="781" d="M5 75q0 13 30 37q32 25 71 25q4 0 8 -1q43 -2 74 -24q66 -97 139.5 -167.5t188.5 -128.5q23 -26 46 -26q30 0 60 47q34 118 34 261v12q-1 41 -1 80q0 104 3 196q-60 -27 -107.5 -70.5t-125.5 -49.5q-59 18 -116.5 45t-84.5 98q-24 79 -24 150q0 44 9 85q20 147 122 296 q44 44 100 81t131 63q39 12 87 12h4q50 -1 123 -39q136 -66 189 -194q-88 -161 -92 -316q6 -141 7 -287v-21q0 -136 -12 -286q-9 -90 -31.5 -180t-71.5 -181q-47 -18 -95 -18q-54 0 -108 23q-116 62 -228.5 130t-206.5 171q-26 31 -55.5 61.5t-47.5 67.5q-19 36 -19 48z M428 480q101 47 143 138q22 41 38.5 83.5t18.5 85.5q1 9 1 17q0 40 -32 40q-13 0 -31 -6q-98 -90 -133 -173q-13 -53 -13 -105q0 -40 8 -80z" />
<glyph unicode="h" horiz-adv-x="828" d="M-2 134q93 413 159.5 824.5t91.5 703.5q0 48 40 88q27 28 59 27q15 0 31 -6q91 -8 103 -55q6 -23 6 -49q0 -27 -7 -56q8 -32 8 -124q-1 -69 -5 -171q-10 -240 -49 -417q58 35 149 34q26 0 52 -2q126 -12 159 -109q24 -98 32 -129q3 -11 3 -30q0 -35 -10 -98 q-26 -103 -32 -206t-6 -206q21 -25 41.5 -48.5t42.5 -47.5q-8 -91 -116 -103q-88 22 -149 96q-54 64 -57 129q-7 39 -7 85q0 106 39 243q1 10 1 18q0 78 -52 78q-15 0 -33 -6q-74 -86 -122 -200q-69 -184 -103 -340q-51 -54 -138 -54q-17 0 -36 2q-43 33 -73 65 q-24 24 -24 49q0 7 2 15z" />
<glyph unicode="i" horiz-adv-x="443" d="M12 582q0 3 -1 6q0 215 99 384q61 18 110 18q90 0 138 -62q-41 -170 -57.5 -340.5t-16.5 -341.5q31 -3 63.5 -4t66.5 -3q89 -59 89 -116q0 -10 -3 -20q-19 -95 -137 -112q-101 21 -149 44q-150 78 -185 199q-15 129 -17 348zM147 1258q-17 37 -17 74q0 53 35 106 q47 29 94 30q28 0 55 -11q13 1 26 1q52 0 86 -17q42 -21 74 -53q38 -80 38 -137q0 -23 -6 -43q-40 -29 -119 -29q-48 0 -111 11q-88 6 -155 68z" />
<glyph unicode="j" horiz-adv-x="440" d="M-573 5q72 75 197 89q60 -86 83 -133q66 -35 132.5 -69t133.5 -68q33 -26 66 -26l76 35q12 113 26 226t28 227v38q0 162 -7 326q-9 183 -38 367q-4 10 -4 21q0 28 30 57q155 -44 206 -74q72 -101 78 -205q20 -123 20 -240q0 -28 -1 -56q-6 -143 -19 -284 q-10 -148 -34.5 -295.5t-84.5 -293.5q-52 -61 -112.5 -77t-121.5 -16q-157 48 -274.5 137.5t-270.5 141.5q-65 43 -85 85.5t-24 86.5zM90 1329q-6 22 -6 39q0 34 21 54q50 43 101 43q33 0 66 -17q56 -22 92 -80q8 -25 8 -50q0 -31 -12 -62q-58 -32 -101 -32q-25 0 -46 11 q-81 27 -123 94z" />
<glyph unicode="k" horiz-adv-x="728" d="M-23 117q2 51 4.5 104.5t6.5 107.5q22 284 36 547q3 62 3 125q0 205 -34 422q-7 52 -7 63q0 28 37 56q141 -11 161 -94q46 -142 60 -296q10 -104 10 -205q0 -48 -3 -96q25 34 79.5 96.5t121.5 87.5q33 22 75 22q21 0 45 -6q68 -61 68 -106q0 -4 -1 -8 q-20 -22 -45.5 -43.5t-74.5 -42.5q-86 -94 -123.5 -141.5t-76.5 -164.5q142 -32 262 -93t212 -123q66 -64 66 -125q0 -16 -4 -31q-8 -33 -71 -33q-17 0 -37 2q-109 59 -233 121t-284 101q-6 -89 -14.5 -178t-36.5 -178q-29 -16 -57 -16t-56 16q-90 41 -90 99q0 5 1 10z" />
<glyph unicode="l" horiz-adv-x="478" d="M-35 447q6 128 28.5 254.5t55.5 253.5q36 135 72.5 270t99.5 272q73 9 124 9q79 0 102 -22q34 -27 34 -65q0 -18 -8 -40q-70 -192 -130.5 -430.5t-94.5 -428.5q-6 -62 -6 -99q0 -14 1 -25q3 -39 23 -123q28 -67 47.5 -89t66.5 -34q64 7 101 14.5t76 42.5q-1 15 9.5 9.5 t30.5 -26.5q3 -12 3 -23q0 -48 -43 -93q-69 -41 -99 -66q-26 -22 -104 -22q-12 0 -26 1q-182 2 -306 148q-59 117 -59 261q0 25 2 51z" />
<glyph unicode="m" horiz-adv-x="1501" d="M14 170q40 147 46 295t22 297q0 88 -49 185q-10 14 -10 28q0 35 64 70q31 25 62 25t62 -25q71 -29 95.5 -68t34.5 -79q10 -13 10 -46q1 -34 -11 -90q-22 -108 -24 -137q36 81 122 189q56 72 120 71q32 0 66 -19q7 1 13 1q35 0 52 -19q20 -22 40 -43q16 -36 31 -71.5 t31 -70.5q165 273 432 375q70 20 116 20q11 0 19 -1q50 -5 86 -19q128 -87 128 -234q0 -26 -4 -55q-31 -96 -60 -191.5t-58 -191.5q-7 -55 -13 -110.5t-11 -110.5q3 -10 3 -20q0 -45 -66 -72q-20 -5 -40 -5q-60 0 -125 46q-76 55 -76 128q0 10 1 21q21 96 49 191.5t75 190.5 q11 54 11 95.5t-11 72.5q-87 -73 -150.5 -175.5t-135.5 -199.5q-3 -40 -36 -125.5t-34 -123.5q-32 -60 -74 -83.5t-86 -33.5q-143 17 -160 110q-3 20 -3 57q0 41 4 101q4 80 4 124q0 21 -1 34q-149 -118 -187 -216.5t-96 -215.5q-12 -34 -84 -50q-26 -6 -49 -5q-41 0 -72 18 q-49 48 -61 86.5t-12 74.5z" />
<glyph unicode="n" horiz-adv-x="884" d="M-6 299q39 146 51.5 247.5t28.5 248.5q0 94 -48 185q-10 14 -10 28q0 35 64 69q31 24 62 24l62 -24q69 -29 94 -67t35 -80q10 -13 10 -45q1 -33 -11 -89q-22 -108 -25 -136q26 54 101.5 173t163.5 152q71 19 117 19h17q49 -4 87 -19q126 -87 126 -232q0 -26 -4 -55 q-30 -96 -59 -191.5t-58 -189.5q-7 -56 -12.5 -111t-11.5 -111q-15 -22 -30.5 -45t-30.5 -45q-18 -2 -34 -2q-61 0 -107 32q-100 49 -100 140q0 9 1 19q30 211 123 380q29 100 29 120q0 5 -2 5q-2 1 -8 -9q-27 -44 -103 -135q-98 -118 -135.5 -172.5t-49.5 -84t-17 -55 t-39 -86.5q-12 -34 -84 -49q-25 -5 -47 -5q-41 0 -71 18q-50 46 -62.5 93.5t-12.5 84.5z" />
<glyph unicode="o" horiz-adv-x="1069" d="M-4 509v31q0 140 32 277q63 115 191 170.5t280 71.5q176 -13 301.5 -65.5t216.5 -131.5q101 -122 123 -234q10 -51 10 -100q0 -60 -14 -119q-128 -153 -260 -239t-269 -121q-100 -41 -178 -41q-26 0 -50 4q-95 18 -173 70q-114 78 -150 192.5t-60 234.5zM201 548 q-4 -32 -4 -61q-1 -109 63 -159q44 -35 112 -35q57 0 132 25q179 73 335 188q25 17 49 45.5t48 48.5q-21 92 -92 131q-114 106 -245 106q-70 0 -145 -31q-214 -88 -253 -258z" />
<glyph unicode="p" horiz-adv-x="1081" d="M7 -100q-4 28 -4 58q0 67 20 136q7 146 34.5 293t66.5 295q111 191 370 344q94 30 196 44q56 8 116 8q49 0 102 -5q102 -20 188 -52.5t125 -105.5q24 -64 24 -125q0 -32 -7 -64q-19 -90 -55 -176q-85 -73 -186 -133.5t-228 -100.5q-102 -21 -203 -34q-56 -8 -113 -8 q-45 0 -91 5q-46 -89 -55.5 -178t-12.5 -177q2 -55 2 -101v-30.5v-30.5q0 -46 2 -101q-24 -35 -61 -69q-24 -22 -56 -22q-17 0 -36 6q-101 68 -116 132q-10 95 -22 192zM468 650q-6 -16 -6 -32q0 -26 17 -52q57 -27 111 -27q17 0 34 3q70 11 145 50q108 43 135.5 108 t50.5 130q-57 11 -105 11q-24 0 -46 -3q-65 -8 -151 -34q-111 -67 -185 -154z" />
<glyph unicode="q" horiz-adv-x="969" d="M6 557q2 83 16 170.5t65 189.5q80 95 179 137.5t209 52.5q154 -24 256 -123q103 -6 134 -17.5t55 -25.5q73 -50 81 -114q-114 -288 -190.5 -588t-122.5 -586q-70 -69 -175 -90q-80 2 -129 33q14 157 57.5 313t71.5 317q-38 -11 -72 -15.5t-70 -13.5q-66 0 -126.5 6.5 t-97.5 54.5q-57 63 -99 134.5t-42 164.5zM290 519q-1 -9 -1 -17q0 -70 63 -92q85 24 134.5 63t87.5 84q28 69 50.5 139t30.5 150q-27 9 -52.5 18t-51.5 20q-25 6 -49 6q-91 0 -165 -87q-53 -106 -53 -212q0 -36 6 -72z" />
<glyph unicode="r" horiz-adv-x="811" d="M1 154q98 201 114 413v26q0 66 4 132q5 79 5 158q5 17 11 29.5t13 31.5q23 6 45 6q71 0 133 -63q12 -19 20 -39q4 -9 4 -30q0 -22 -5 -57q28 27 70 55.5t71 56.5q62 57 136 105q61 39 172 39q24 0 50 -2q14 1 27 1q30 0 59 -6q41 -9 69 -61q14 -32 14 -63q0 -18 -5 -36 q-65 -27 -128 -38t-126 -18q-186 -148 -311 -349t-221 -414q-30 -14 -60 -27q-18 -8 -48 -8q-19 0 -42 3q-73 68 -71 155z" />
<glyph unicode="s" horiz-adv-x="880" d="M-88 648q136 4 278.5 24t243.5 123q18 55 37 110q10 30 10 60q0 25 -7 50q16 49 85 49q13 0 28 -2q133 -50 181 -136q38 -146 44 -286q1 -13 0 -26q0 -127 -49 -249q131 -2 216.5 -23.5t194.5 -75.5q-14 -20 -45 -59q-67 -11 -133.5 -20.5t-132.5 -20.5 q-123 -104 -339 -158q-36 -11 -81 -11q-55 0 -124 16q-38 20 -78.5 65.5t-52.5 92.5q27 48 145.5 64.5t171.5 57.5q33 59 59 123q18 46 18 143q0 38 -3 84q-86 -107 -184 -137.5t-225 -32.5q-236 1 -258 175z" />
<glyph unicode="t" horiz-adv-x="616" d="M-2 297q0 4 -1 9q0 61 7 120q23 94 53 188t85 189q4 10 9.5 20t22.5 49q-11 -1 -22 -1q-72 0 -110 36q-28 59 -28 148q0 25 2 51q163 5 301 15q101 174 220 320q10 6 29 6q47 0 149 -35q44 -49 46 -98q-80 -118 -144 -222q90 -18 186 -49q10 -15 20.5 -29.5t20.5 -29.5 q-14 -10 -28.5 -19.5t-29.5 -18.5q-69 -10 -138 -19.5t-137 -18.5q-10 -18 -19 -35t-17 -34q-39 -100 -93.5 -250t-83.5 -257q-19 -76 -19 -112q-1 -16 3 -24q12 -26 37 -24q92 14 146.5 44.5t107.5 60.5q33 15 61.5 15t54.5 -15q31 -30 31 -59q0 -19 -13 -39 q-54 -49 -115 -93t-142 -78q-45 -22 -90 -22h-9q-49 2 -97 16q-199 63 -239 167q-17 63 -17 128z" />
<glyph unicode="u" horiz-adv-x="794" d="M-8 544q0 4 -1 8q0 165 20 309q9 43 111 87q27 6 45 6q21 0 31 -8q18 -15 39 -30q-15 -157 -15 -275q0 -185 36 -274t79 -88q28 0 60 38q79 97 137 311q36 131 36 264q0 84 -14 169q39 22 79 22q35 0 71 -18q76 -37 110 -106q5 -34 4 -82q0 -35 -2 -79q-6 -102 -34 -206 q-45 -203 -123 -374.5t-225 -204.5q-70 -21 -128 -21q-80 0 -136 42q-94 72 -137 206t-43 304z" />
<glyph unicode="v" horiz-adv-x="1028" d="M-42 840q5 24 10.5 47.5t56.5 46.5q51 14 90 14q23 0 41 -4q50 -14 90 -39q42 -113 92.5 -269t144.5 -260q82 105 157.5 271t122.5 298q49 58 107 65q23 3 46 3q36 0 74 -7q71 -23 97 -53t37 -63q-128 -256 -280.5 -485t-343.5 -413q-25 -3 -49 -3q-39 -1 -72 7 q-54 12 -69 76q-216 364 -352 768z" />
<glyph unicode="w" horiz-adv-x="1437" d="M-39 508q-3 40 -3 75q0 66 10 113q18 37 59 59q20 11 57.5 11t91.5 -11q46 -13 95 -155q-9 -44 -9 -79q0 -38 10 -65q20 -52 24 -80q26 66 44 167t121 217q21 2 42 2q31 0 61 -4q52 -8 96 -53q54 -118 95 -234.5t45 -234.5h9q71 0 153 92q88 98 182 253 q31 103 51.5 213.5t22.5 234.5q44 17 87 17q49 0 98 -22q77 -56 94 -169q0 -126 -28.5 -250t-101.5 -249q-102 -112 -208 -219.5t-240 -179.5q-62 -23 -115 -23q-100 0 -168 79q-106 122 -138 273q-16 -51 -51 -115t-81 -104q-18 -29 -30 -42t-70 -13q-98 1 -162.5 81 t-99.5 189.5t-43 225.5z" />
<glyph unicode="x" horiz-adv-x="941" d="M-64 918q39 27 88 27q24 0 50 -6q207 -95 311 -207q4 5 11 18q56 64 110.5 128.5t109.5 129.5q34 23 63 23q26 0 49 -19q74 -19 87 -94q-151 -186 -260 -350q30 -28 44 -42q154 -117 285 -182q30 -7 60 -14.5t60 -15.5q1 -16 3.5 -32.5t5.5 -31.5q-15 -30 -41 -50 q-21 -16 -68 -16q-11 0 -24 1q-113 23 -210 72t-191 101q-10 6 -19.5 12.5t-17.5 13.5q-13 -21 -10 -17q-49 -94 -108 -184t-134 -165q-31 -24 -63 -24q-16 0 -32 6q-69 17 -69 60q0 10 4 22q95 216 227 442q-127 100 -265 226q-65 61 -65 123q0 22 9 45z" />
<glyph unicode="y" horiz-adv-x="743" d="M-3 856q4 39 33 39q12 0 29 -7q12 3 25 3q29 0 64 -15q51 -23 82 -53q-18 -66 -18 -147.5t18 -180.5q35 -191 132 -191h6h10q94 0 148 185q12 161 12 264q0 62 -4 103q-3 25 -3 49q0 85 33 170q38 19 79 19q13 0 27 -2q46 -29 81 -60t33 -75q-9 -94 -19 -338t-34 -338 q-36 -84 -73.5 -285t-76.5 -252q-115 -173 -220 -173q-101 0 -193 160q178 60 214 155t47 193q-116 -6 -117 -6h-1q-143 50 -252 200q-27 71 -40 291t-22 292z" />
<glyph unicode="z" horiz-adv-x="1056" d="M-119 752q-8 16 -8 33t8 33q30 49 75 57q46 7 113 7q22 0 47 -1q98 -3 168 -8q166 -36 270.5 -97t118.5 -197q-26 -110 -129 -188q35 -10 69 -44q204 131 428 189q46 9 87 9q70 -1 124 -25q88 -38 114 -138q-11 -19 -41 -34t-62 -36q-61 56 -107 56h-2q-46 -2 -137 -17 q-130 -64 -222 -144q86 -90 99 -162q-5 -219 -186 -330.5t-317 -144.5q-19 -1 -38 -1q-122 -1 -194 57q-61 49 -61 137q0 32 8 69q21 59 53 116t94 115q52 45 95 86t134 108q-48 41 -112 41q-30 0 -64 -9q-61 -17 -122 -17q-43 0 -86 9q-87 10 -94 60q-24 26 -24 51 q0 29 32 58q50 16 129.5 24t131.5 10q58 20 107.5 49t70.5 84q-6 45 -56 74t-174 31q-97 -12 -138.5 -18t-83.5 -12q-34 9 -67.5 18t-50.5 42zM300 -209q0 -15 1.5 -30t1.5 -31q22 -7 43 -7q48 0 94 34q68 50 123 125q37 72 41 112v8q0 39 -30 100q-106 -71 -165 -143.5 t-109 -167.5z" />
<glyph unicode="{" horiz-adv-x="684" d="M34.5 686q-30.5 108 34.5 135.5t109.5 116t60.5 157.5t27.5 239.5t40.5 263.5t65 123.5t64 38.5t47 13t62 5h71q28 0 28 -78.5t-16 -78.5h-67q-52 0 -86 -37.5t-38 -132.5t-4 -226t-5.5 -165.5t-10.5 -95.5t-52.5 -134t-94 -95.5t8.5 -45.5t104.5 -208.5t88 -470 t86.5 -284.5h62q16 0 16 -78.5t-28 -78.5h-77q-49 0 -71 8t-54 19.5t-87.5 216t-71.5 379.5t-60.5 279.5t-83 105.5t-69 109z" />
<glyph unicode="|" horiz-adv-x="532" d="M150 681q0 1112 110 1112t110 -1112t-110 -1112t-110 1112z" />
<glyph unicode="}" horiz-adv-x="650" d="M39 -337.5q0 -78.5 25 -78.5h71q45 0 65 8t49 19.5t80 216t80.5 436t73.5 271.5t79.5 41t63 109t-31.5 135.5t-103.5 67t-59 108.5t-32.5 293t-44.5 317t-59.5 123.5t-58.5 38.5t-42.5 13t-56 5h-66q-25 0 -25 -78.5t14 -78.5h61q48 0 79 -37.5t31 -102.5t11 -279.5 t16 -249t13.5 -88t52 -85t85.5 -54t-8 -45.5t-114 -200.5t-99 -462t-79 -284.5h-57q-14 0 -14 -78.5z" />
<glyph unicode="~" horiz-adv-x="1196" d="M87 659.5q0 102.5 53 162.5t139 60h116q30 0 96 -17.5t127 -43.5t95.5 -40.5t69 -23.5t51.5 -9h50q33 0 102.5 39t96.5 68.5t27 -76.5t-32 -136t-97.5 -57t-106.5 -27h-71q-30 0 -172 79t-301 39.5t-201 -80t-42 62z" />
<glyph unicode="&#xa1;" horiz-adv-x="501" d="M60 -243.5q23 160.5 103 541.5t191 362.5t83.5 -407t-50 -549.5t-186.5 -134.5t-141 187zM267 832.5q2 102.5 117 100.5t113 -104.5t-117 -100.5t-113 104.5z" />
<glyph unicode="&#xa2;" horiz-adv-x="1139" d="M107 526q0 178 58.5 305.5t175 191.5t237.5 64q36 0 100 -8l113 387l110 -32l-112 -387q99 -43 152 -115.5t74 -181.5l-175 -27q-26 112 -96 171l-222 -766q33 -9 61 -9q104 0 179.5 71t92.5 199l179 -20q-33 -185 -156.5 -291t-291.5 -106q-49 0 -103 14l-118 -395 l-112 32l115 398q-115 55 -188 183.5t-73 321.5zM292 535q0 -132 32 -223t91 -135l223 763q-32 3 -50 3q-82 0 -153.5 -45.5t-107 -141t-35.5 -221.5z" />
<glyph unicode="&#xa3;" horiz-adv-x="1139" d="M27 145q96 53 163 151.5t67 240.5q0 61 -17 124h-196v148h154q-33 112 -42 163.5t-9 100.5q0 208 154 325q124 93 300 93q181 0 298.5 -99.5t144.5 -279.5l-179 -27q-15 120 -89.5 189t-178.5 69q-111 0 -184.5 -71.5t-73.5 -172.5q0 -111 57 -290h315v-148h-284 q19 -44 19 -88q0 -87 -41.5 -184t-136.5 -198q79 22 144 22q83 0 187 -25q172 -41 233 -41q74 0 192 56l58 -165q-92 -39 -142.5 -51t-100.5 -12q-42 0 -85 8q-27 5 -129.5 36.5t-132.5 37.5q-47 8 -94 8q-72 0 -153.5 -25t-148.5 -68z" />
<glyph unicode="&#xa4;" horiz-adv-x="1139" d="M74 354l139 136q-71 110 -71 236q0 125 71 235l-139 136l115 119l139 -139q106 72 237 72q132 0 237 -72l139 139l116 -119l-139 -136q71 -110 71 -235q0 -126 -71 -236l139 -136l-116 -119l-139 140q-105 -73 -237 -73q-131 0 -237 73l-139 -140zM305 726 q0 -108 76 -184t183 -76t183 76t76 184q0 107 -75.5 183t-183.5 76q-107 0 -183 -76t-76 -183z" />
<glyph unicode="&#xa5;" horiz-adv-x="1139" d="M-3 1466h200l290 -516q49 -88 76 -154q23 53 82 163l274 507h214l-405 -711h341v-148h-412v-143h412v-139h-412v-325h-180v325h-415v139h415v143h-415v148h341z" />
<glyph unicode="&#xa6;" horiz-adv-x="426" d="M97 -43.5q0 395.5 139 399.5t139 -391.5t-139 -399.5t-139 391.5zM97 1088q0 395 139 399t139 -391t-139 -399t-139 391z" />
<glyph unicode="&#xa7;" horiz-adv-x="1139" d="M81 644q0 96 60 174t165 109q-71 68 -100 125.5t-29 122.5q0 128 100 222t265 94q187 0 292 -89t126 -258l-187 -19q-21 122 -73.5 170t-141.5 48q-92 0 -148.5 -49.5t-56.5 -109.5q0 -52 36 -96q56 -68 306 -220q157 -96 212 -141q71 -60 104.5 -124t33.5 -139 q0 -113 -73 -193q-42 -46 -154 -93q80 -61 119.5 -131t39.5 -150q0 -88 -50 -166.5t-144 -120t-203 -41.5q-191 0 -303 95.5t-134 265.5l181 26q28 -130 89 -182.5t166 -52.5q102 0 159.5 52t57.5 122q0 51 -36 94q-62 75 -340 245q-148 91 -206.5 142.5t-95.5 121.5 t-37 146zM244 664q0 -63 46 -120t207 -152q134 -79 231 -148q74 38 110.5 88.5t36.5 98.5q0 57 -52 120q-53 63 -225 169q-137 84 -204 138q-81 -46 -115.5 -92t-34.5 -102z" />
<glyph unicode="&#xa8;" d="M61 1372.5q0 102.5 85.5 95t94 -102.5t-85.5 -95t-94 102.5zM433 1366q-1 96 94 102.5t102.5 -83.5t-94 -102.5t-102.5 83.5z" />
<glyph unicode="&#xa9;" horiz-adv-x="1509" d="M3 736q0 197 101.5 378.5t282.5 279t371 97.5t371 -97.5t282 -279t101 -378.5q0 -195 -99.5 -375t-279 -279.5t-375.5 -99.5t-375.5 99.5t-279.5 279.5t-100 375zM128 736q0 -163 83.5 -312.5t233.5 -233t313 -83.5t313 83.5t233 233t83 312.5q0 164 -84.5 315.5 t-235.5 233t-309 81.5q-159 0 -309.5 -81.5t-235.5 -233t-85 -315.5zM363 734q0 132 50 229.5t142.5 147t211.5 49.5q133 0 221 -63.5t120 -172.5l-119 -29q-30 74 -88.5 113.5t-137.5 39.5q-115 0 -189.5 -82t-74.5 -235t70.5 -231.5t182.5 -78.5q90 0 158 52t90 141 l123 -36q-30 -125 -127.5 -199.5t-236.5 -74.5q-176 0 -286 114t-110 316z" />
<glyph unicode="&#xaa;" horiz-adv-x="758" d="M47 965q0 48 16 84t47.5 64t81.5 45q35 11 99 21l147 22q72 14 96 20q-1 70 -14 94t-48.5 41.5t-94.5 17.5q-79 0 -118 -32.5t-48 -92.5l-137 34q12 89 88 148.5t217 59.5q164 0 232 -61q67 -62 67 -181v-240l-1 -61q0 -134 41 -184h-148q-20 40 -22 89 q-122 -107 -256 -107q-113 0 -179 61.5t-66 157.5zM196 965q0 -41 34 -70t96 -29q73 0 127 39t72 96q7 20 8 103q-53 -14 -192 -36q-90 -14 -117 -39q-28 -26 -28 -64z" />
<glyph unicode="&#xab;" horiz-adv-x="1139" d="M134 528l319 456h148l-261 -456l259 -456h-146zM526 528l313 456h152l-264 -456l264 -456h-152z" />
<glyph unicode="&#xac;" horiz-adv-x="1196" d="M114 862v168h968v-606h-170v438h-798z" />
<glyph unicode="&#xad;" d="M65 530.5q0 90.5 276.5 90.5t276.5 -90.5t-276.5 -90.5t-276.5 90.5z" />
<glyph unicode="&#xae;" horiz-adv-x="1509" d="M3 736q0 197 101.5 378.5t282.5 279t371 97.5t371 -97.5t282 -279t101 -378.5q0 -195 -99.5 -375t-279 -279.5t-375.5 -99.5t-375.5 99.5t-279.5 279.5t-100 375zM128 736q0 -163 83.5 -312.5t233.5 -233t313 -83.5t313 83.5t233 233t83 312.5q0 164 -84.5 315.5 t-235.5 233t-309 81.5q-159 0 -309.5 -81.5t-235.5 -233t-85 -315.5zM427 319v812h279q143 0 207 -22.5t102 -78.5t38 -119q0 -89 -63.5 -155t-168.5 -74q43 -18 69 -43q49 -48 120 -161l99 -159h-160l-72 128q-85 151 -137 189q-36 28 -105 28h-77v-345h-131zM558 776h159 q114 0 155.5 34t41.5 90q0 36 -20 64.5t-55.5 42.5t-131.5 14h-149v-245z" />
<glyph unicode="&#xaf;" horiz-adv-x="1131" d="M-31 1630.5q0 64.5 596.5 64.5t596.5 -64.5t-596.5 -64.5t-596.5 64.5z" />
<glyph unicode="&#xb0;" horiz-adv-x="819" d="M128 1214q0 115 81.5 196t195.5 81q116 0 197 -81t81 -196t-81.5 -196.5t-196.5 -81.5q-114 0 -195.5 81t-81.5 197zM237 1214q0 -70 49.5 -119.5t119.5 -49.5q69 0 118.5 49.5t49.5 119.5t-49.5 119.5t-118.5 49.5q-70 0 -119.5 -49.5t-49.5 -119.5z" />
<glyph unicode="&#xb1;" horiz-adv-x="1124" d="M78 0v168h968v-168h-968zM78 663v167h399v399h170v-399h399v-167h-399v-403h-170v403h-399z" />
<glyph unicode="&#xb2;" d="M25 733q6 57 47 114q63 86 207 190.5t171 134.5q37 41 37 84q0 48 -35 79t-103 31q-66 0 -98.5 -23.5t-53.5 -90.5l-151 16q29 111 100.5 163.5t205.5 52.5q151 0 221.5 -59t70.5 -144q0 -84 -59 -159q-45 -56 -205 -171q-83 -61 -118 -97h386v-121h-623z" />
<glyph unicode="&#xb3;" d="M33 929l146 15q20 -60 52 -82q43 -30 102 -30q71 0 114 39t43 94q0 50 -36 80t-123 30q-12 0 -33 -2q-14 -1 -22 -1l22 110q81 -1 118.5 29t37.5 73q0 37 -30 63t-89 26q-56 0 -87.5 -22t-54.5 -80l-143 23q41 106 103.5 148t182.5 42q144 0 209.5 -53.5t65.5 -133.5 q0 -55 -35.5 -98t-102.5 -62q89 -22 131 -72.5t42 -118.5q0 -93 -79 -162t-225 -69q-140 0 -214 55.5t-95 158.5z" />
<glyph unicode="&#xb4;" d="M291 1352q72 158 200 158t9 -158t-200 -158t-9 158z" />
<glyph unicode="&#xb5;" horiz-adv-x="1180" d="M160 -407v1469h178v-450q0 -245 26 -317.5t84.5 -114.5t134.5 -42q80 0 143 44t89 113.5t26 313.5v453h177v-1062h-161v126q-52 -80 -103 -110q-70 -41 -163 -41q-83 0 -147 33q-48 25 -106 99v-514h-178z" />
<glyph unicode="&#xb6;" horiz-adv-x="1100" d="M1 1044q0 193 120.5 307.5t352.5 114.5h633v-173h-144v-1700h-170v1700h-223v-1700h-165v1045q-187 10 -295.5 121.5t-108.5 284.5z" />
<glyph unicode="&#xb7;" horiz-adv-x="569" d="M185 721.5q0 102.5 102.5 102.5t102.5 -102.5t-102.5 -102.5t-102.5 102.5z" />
<glyph unicode="&#x2219;" horiz-adv-x="569" d="M185 721.5q0 102.5 102.5 102.5t102.5 -102.5t-102.5 -102.5t-102.5 102.5z" />
<glyph unicode="&#xb8;" d="M129.5 -377.5q-39.5 43.5 6.5 62.5t108 19t100 26q36 48 -10 81.5t-90.5 48t24.5 163.5h134l-33 -107q85 -10 121 -52.5t43 -68.5t-5 -73t-72 -95t-205 -48q-82 0 -121.5 43.5z" />
<glyph unicode="&#xb9;" d="M107 1174v123q62 20 138 73t123 114h108v-751h-145v554q-102 -81 -224 -113z" />
<glyph unicode="&#xba;" horiz-adv-x="748" d="M45 1111q0 180 91.5 280t236.5 100t236.5 -100t91.5 -276q0 -175 -92 -275t-235 -100q-145 0 -237 98t-92 273zM193 1115q0 -126 50.5 -184.5t129.5 -58.5q80 0 130 58.5t50 189.5q0 122 -50.5 180t-129.5 58q-81 0 -130.5 -57t-49.5 -186z" />
<glyph unicode="&#xbb;" horiz-adv-x="1139" d="M140 72l264 456l-264 456h151l314 -456l-314 -456h-151zM530 984h148l319 -456l-319 -456h-147l260 456z" />
<glyph unicode="&#xbc;" horiz-adv-x="1708" d="M107 1174v123q62 20 138 73t123 114h108v-751h-145v554q-102 -81 -224 -113zM252 -57l1102 1548h156l-1101 -1548h-157zM1047 123v123l405 474h122v-489h104v-108h-104v-154h-144v154h-383zM1200 231h230v263z" />
<glyph unicode="&#xbd;" horiz-adv-x="1708" d="M107 1174v123q62 20 138 73t123 114h108v-751h-145v554q-102 -81 -224 -113zM228 -57l1101 1548h157l-1101 -1548h-157zM1049 -31q6 56 48 113q62 87 206 191t171 135q37 41 37 84q0 48 -34.5 78.5t-103.5 30.5q-66 0 -98.5 -23.5t-53.5 -89.5l-151 15q29 112 101 164.5 t205 52.5q151 0 221.5 -59t70.5 -144q0 -84 -59 -159q-45 -56 -204 -172q-84 -61 -119 -96h386v-121h-623z" />
<glyph unicode="&#xbe;" horiz-adv-x="1708" d="M33 929l146 15q20 -60 52 -82q43 -30 102 -30q71 0 114 39t43 94q0 50 -36 80t-120 30q-50 -3 -58 -3l22 110q81 -1 118.5 29t37.5 73q0 37 -30 63t-89 26q-56 0 -87.5 -22t-54.5 -80l-143 23q41 106 103.5 148t182.5 42q144 0 209.5 -53.5t65.5 -133.5q0 -55 -35.5 -98 t-102.5 -62q89 -22 131 -72.5t42 -118.5q0 -93 -79 -162t-225 -69q-140 0 -214 55.5t-95 158.5zM252 -57l1101 1548h157l-1101 -1548h-157zM1047 123v123l404 474h123v-489h104v-108h-104v-154h-145v154h-382zM1200 231h229v263z" />
<glyph unicode="&#xbf;" horiz-adv-x="1164" d="M78 -77q2 -41 26 -91q128 -180 286.5 -225.5t285.5 -34.5t266 55q38 17 83.5 58t85 115.5t-4.5 129t-167 19.5q-101 -99 -314 -119.5t-272 74t65 156t370 202t209 350.5t-222 256.5t-442 6.5q-34 -33 -58.5 -62t-10.5 -81q12 -44 41 -56t53 -23q386 37 374.5 -106 t-405.5 -255q-117 -37 -166.5 -103t-79.5 -185q-5 -40 -3 -81zM394.5 1055.5q0.5 128.5 205.5 160.5t204.5 -96t-205.5 -160.5t-204.5 96z" />
<glyph unicode="&#xc0;" horiz-adv-x="1561" d="M-4 203q52 96 97 175q-22 -2 -32 -2q-31 14 -51 66q-12 31 -12 60q0 20 5 39q-3 20 -3 36q0 33 14 49q20 22 53 70q58 4 116 8.5t115 8.5q131 201 281 398q-3 3 -7 6t-7 7q-11 36 -11 71q0 52 23 103q45 46 91 48q8 0 16 1q38 0 75 -10q9 11 18.5 22t19.5 23q29 11 56 11 q59 0 107 -53q30 -42 36 -84q6 -36 6 -70v-11q-4 -6 -8 -10.5t-7 -9.5q111 -98 214 -204.5t198 -214.5q45 -2 123.5 -3t124.5 -2q87 -14 129 -116q13 -26 13 -50q0 -42 -41 -77q-64 -54 -88 -72q30 -39 58 -76t54 -72q57 -48 57 -104q0 -52 -17 -131q-18 -29 -52 -29 q-27 0 -64 19q-103 87 -201 186.5t-194 204.5q-259 0 -455 -3q-84 -1 -172 -1q-119 0 -247 2q-120 -150 -214 -298q-45 -82 -107 -82q-15 0 -31 5q-79 35 -79 152v14zM601 693q248 7 496 11q-70 73 -138.5 146.5t-138.5 147.5q-55 -77 -110 -153.5t-109 -151.5z M544.5 1579.5q-105.5 138.5 15 138.5t178 -138.5t-15 -138.5t-178 138.5z" />
<glyph unicode="&#xc1;" horiz-adv-x="1564" d="M-4 203q52 96 97 175q-22 -2 -32 -2q-31 14 -51 66q-12 31 -12 60q0 20 5 39q-3 20 -3 36q0 33 14 49q20 22 53 70q58 4 116 8.5t115 8.5q131 201 281 398q-3 3 -7 6t-7 7q-11 36 -11 71q0 52 23 103q45 46 91 48q8 0 16 1q38 0 75 -10q9 11 18.5 22t19.5 23q29 11 56 11 q59 0 107 -53q30 -42 36 -84q6 -36 6 -70v-11q-4 -6 -8 -10.5t-7 -9.5q111 -98 214 -204.5t198 -214.5q45 -2 123.5 -3t124.5 -2q87 -14 129 -116q13 -26 13 -50q0 -42 -41 -77q-64 -54 -88 -72q30 -39 58 -76t54 -72q57 -48 57 -104q0 -52 -17 -131q-18 -29 -52 -29 q-27 0 -64 19q-103 87 -201 186.5t-194 204.5q-259 0 -455 -3q-84 -1 -172 -1q-119 0 -247 2q-120 -150 -214 -298q-45 -82 -107 -82q-15 0 -31 5q-79 35 -79 152v14zM601 693q248 7 496 11q-70 73 -138.5 146.5t-138.5 147.5q-55 -77 -110 -153.5t-109 -151.5zM740 1613 q72 158 200 158t9 -158t-200 -158t-9 158z" />
<glyph unicode="&#xc2;" horiz-adv-x="1563" d="M-4 203q52 96 97 175q-22 -2 -32 -2q-31 14 -51 66q-12 31 -12 60q0 20 5 39q-3 20 -3 36q0 33 14 49q20 22 53 70q58 4 116 8.5t115 8.5q131 201 281 398q-3 3 -7 6t-7 7q-11 36 -11 71q0 52 23 103q45 46 91 48q8 0 16 1q38 0 75 -10q9 11 18.5 22t19.5 23q29 11 56 11 q59 0 107 -53q30 -42 36 -84q6 -36 6 -70v-11q-4 -6 -8 -10.5t-7 -9.5q111 -98 214 -204.5t198 -214.5q45 -2 123.5 -3t124.5 -2q87 -14 129 -116q13 -26 13 -50q0 -42 -41 -77q-64 -54 -88 -72q30 -39 58 -76t54 -72q57 -48 57 -104q0 -52 -17 -131q-18 -29 -52 -29 q-27 0 -64 19q-103 87 -201 186.5t-194 204.5q-259 0 -455 -3q-84 -1 -172 -1q-119 0 -247 2q-120 -150 -214 -298q-45 -82 -107 -82q-15 0 -31 5q-79 35 -79 152v14zM601 693q248 7 496 11q-70 73 -138.5 146.5t-138.5 147.5q-55 -77 -110 -153.5t-109 -151.5zM480 1438 q96 130 216 251q103 41 192 0q113 -115 225 -251q-76 -43 -204 0q-15 84 -112 114q-96 -26 -111 -114q-164 -44 -206 0z" />
<glyph unicode="&#xc3;" horiz-adv-x="1563" d="M-4 203q52 96 97 175q-22 -2 -32 -2q-31 14 -51 66q-12 31 -12 60q0 20 5 39q-3 20 -3 36q0 33 14 49q20 22 53 70q58 4 116 8.5t115 8.5q131 201 281 398q-3 3 -7 6t-7 7q-11 36 -11 71q0 52 23 103q45 46 91 48q8 0 16 1q38 0 75 -10q9 11 18.5 22t19.5 23q29 11 56 11 q59 0 107 -53q30 -42 36 -84q6 -36 6 -70v-11q-4 -6 -8 -10.5t-7 -9.5q111 -98 214 -204.5t198 -214.5q45 -2 123.5 -3t124.5 -2q87 -14 129 -116q13 -26 13 -50q0 -42 -41 -77q-64 -54 -88 -72q30 -39 58 -76t54 -72q57 -48 57 -104q0 -52 -17 -131q-18 -29 -52 -29 q-27 0 -64 19q-103 87 -201 186.5t-194 204.5q-259 0 -455 -3q-84 -1 -172 -1q-119 0 -247 2q-120 -150 -214 -298q-45 -82 -107 -82q-15 0 -31 5q-79 35 -79 152v14zM601 693q248 7 496 11q-70 73 -138.5 146.5t-138.5 147.5q-55 -77 -110 -153.5t-109 -151.5zM399.5 1520 q4.5 42 62.5 104q57 62 175 72q87 -15 140 -64q59 -30 94 -30q32 0 49 17.5t24 52t71 34.5t77.5 -69t-35 -117.5t-100 -60t-97 -5t-148.5 62.5q-50 16 -81 16q-34 0 -50 -9q-44 -19 -43 -66q-64 -52 -103.5 -16t-35 78z" />
<glyph unicode="&#xc4;" horiz-adv-x="1563" d="M-4 203q52 96 97 175q-22 -2 -32 -2q-31 14 -51 66q-12 31 -12 60q0 20 5 39q-3 20 -3 36q0 33 14 49q20 22 53 70q58 4 116 8.5t115 8.5q131 201 281 398q-3 3 -7 6t-7 7q-11 36 -11 71q0 52 23 103q45 46 91 48q8 0 16 1q38 0 75 -10q9 11 18.5 22t19.5 23q29 11 56 11 q59 0 107 -53q30 -42 36 -84q6 -36 6 -70v-11q-4 -6 -8 -10.5t-7 -9.5q111 -98 214 -204.5t198 -214.5q45 -2 123.5 -3t124.5 -2q87 -14 129 -116q13 -26 13 -50q0 -42 -41 -77q-64 -54 -88 -72q30 -39 58 -76t54 -72q57 -48 57 -104q0 -52 -17 -131q-18 -29 -52 -29 q-27 0 -64 19q-103 87 -201 186.5t-194 204.5q-259 0 -455 -3q-84 -1 -172 -1q-119 0 -247 2q-120 -150 -214 -298q-45 -82 -107 -82q-15 0 -31 5q-79 35 -79 152v14zM601 693q248 7 496 11q-70 73 -138.5 146.5t-138.5 147.5q-55 -77 -110 -153.5t-109 -151.5zM496 1589.5 q0 102.5 85.5 95t94 -102.5t-85.5 -95t-94 102.5zM868 1583q-1 96 94 102.5t102.5 -83.5t-94 -102.5t-102.5 83.5z" />
<glyph unicode="&#xc5;" horiz-adv-x="1562" d="M-4 203q52 96 97 175q-22 -2 -32 -2q-31 14 -51 66q-12 31 -12 60q0 20 5 39q-3 20 -3 36q0 33 14 49q20 22 53 70q58 4 116 8.5t115 8.5q131 201 281 398q-3 3 -7 6t-7 7q-11 36 -11 71q0 52 23 103q45 46 91 48q8 0 16 1q38 0 75 -10q9 11 18.5 22t19.5 23q29 11 56 11 q59 0 107 -53q30 -42 36 -84q6 -36 6 -70v-11q-4 -6 -8 -10.5t-7 -9.5q111 -98 214 -204.5t198 -214.5q45 -2 123.5 -3t124.5 -2q87 -14 129 -116q13 -26 13 -50q0 -42 -41 -77q-64 -54 -88 -72q30 -39 58 -76t54 -72q57 -48 57 -104q0 -52 -17 -131q-18 -29 -52 -29 q-27 0 -64 19q-103 87 -201 186.5t-194 204.5q-259 0 -455 -3q-84 -1 -172 -1q-119 0 -247 2q-120 -150 -214 -298q-45 -82 -107 -82q-15 0 -31 5q-79 35 -79 152v14zM601 693q248 7 496 11q-70 73 -138.5 146.5t-138.5 147.5q-55 -77 -110 -153.5t-109 -151.5zM661 1622 q-12 73 35 122.5t133 56.5q68 -12 114.5 -47t65.5 -136q-12 -80 -31 -118.5t-148 -64.5q-75 0 -121 53.5t-48 133.5zM725 1643q0 -22 10 -50.5t31.5 -55.5t64.5 -27q70 16 88 40t18 69q-13 45 -34 71.5t-72 37.5q-43 0 -74.5 -31.5t-31.5 -53.5z" />
<glyph unicode="&#xc6;" horiz-adv-x="2667" d="M-121.5 90q-83.5 90 79 377.5t422.5 643t528 355.5h268q48 -744 23 -1108.5t-253 -145.5v211h-480q-159 0 -272 -211q-113 -212 -172.5 -212t-143 90zM509.5 814.5q-110.5 -219.5 26.5 -237.5t273.5 0t108.5 192.5t0 349t-135 45t-273.5 -349zM937.5 1215.5 q-5.5 242.5 18.5 276.5q146 89 237 -42q1 -7 3 -13.5t5 -12.5q226 0 454 1.5t457 3.5q201 -17 292 -119q5 -66 -52.5 -101t-135.5 -58q-244 8 -487 1t-485 -26q0 -82 6 -182q247 34 475 29t449 -24q146 -36 238 -126q37 -67 -35 -131q-278 11 -555.5 2.5t-552.5 -50.5 q5 -60 10.5 -119.5t12.5 -118.5q457 54 847.5 77t836.5 23q89 -2 174 -34q38 -35 31 -90.5t-46 -86.5q-530 -82 -980.5 -108t-905.5 -136q-95 1 -154 83q-61 47 -18 151q-78 164 -93 302q-2 12 -4 25.5t-3 27.5q-8 4 -7 2q-84 92 -28 181q4 5 12 14q-11 136 -16.5 378.5z " />
<glyph unicode="&#xc7;" horiz-adv-x="1864" d="M14 564q-10 48 -10 95q0 89 37 173q133 256 380.5 360.5t555.5 150.5q122 -3 176.5 -20.5t82.5 -39.5q79 -63 79 -124q0 -17 -6 -35q-87 -32 -193 -34q-45 -1 -88 0q-57 0 -111 1q-228 -66 -345.5 -126t-231.5 -166q-52 -48 -52 -119q0 -10 1 -20q8 -84 43 -136 q151 -162 366 -214q82 -21 138 -20h26q62 6 161 41q138 47 327.5 102.5t423.5 79.5h15q105 0 117 -92q7 -19 7 -37q1 -20 -9 -38q-18 -34 -49 -52q-219 -24 -407.5 -104.5t-408.5 -146.5q-117 -35 -196 -41q-12 -1 -24 -1q-72 0 -173 27q-315 84 -511 281q-91 115 -121 255z M533.5 -377.5q-39.5 43.5 6.5 62.5t108 19t100 26q36 48 -10 81.5t-90.5 48t24.5 163.5h134l-33 -107q85 -10 121 -52.5t43 -68.5t-5 -73t-72 -95t-205 -48q-82 0 -121.5 43.5z" />
<glyph unicode="&#xc8;" horiz-adv-x="2031" d="M8 1276q13 48 103 86q0 40 24 74q59 36 109 36q74 0 128 -78q1 -7 3 -13.5t5 -12.5q226 0 454 1.5t457 3.5q201 -17 292 -119v-10q-1 -58 -53 -91q-58 -35 -135 -58q-130 4 -260 4q-114 0 -227 -3q-243 -7 -485 -26q0 -82 6 -182q215 30 416 29h59q228 -5 449 -24 q146 -36 238 -126q13 -23 13 -45q0 -44 -48 -86q-157 6 -313 6q-121 0 -243 -4q-278 -8 -552 -50q5 -60 10.5 -119.5t12.5 -118.5q457 54 847.5 77t836.5 23q89 -2 174 -34q32 -30 32 -74q0 -8 -1 -16q-7 -56 -46 -87q-530 -82 -980.5 -108t-905.5 -136q-95 1 -154 83 q-36 28 -36 75q0 33 18 76q-78 164 -93 302q-2 12 -4 25.5t-3 27.5q-8 4 -7 2q-50 55 -50 109q0 36 22 72q4 5 12 14q-11 136 -14 273q-92 52 -109 124q-8 27 -8 53q0 23 6 45zM678.5 1607.5q-105.5 138.5 15 138.5t178 -138.5t-15 -138.5t-178 138.5z" />
<glyph unicode="&#xc9;" horiz-adv-x="2031" d="M8 1276q13 48 103 86q0 40 24 74q59 36 109 36q74 0 128 -78q1 -7 3 -13.5t5 -12.5q226 0 454 1.5t457 3.5q201 -17 292 -119v-10q-1 -58 -53 -91q-58 -35 -135 -58q-130 4 -260 4q-114 0 -227 -3q-243 -7 -485 -26q0 -82 6 -182q215 30 416 29h59q228 -5 449 -24 q146 -36 238 -126q13 -23 13 -45q0 -44 -48 -86q-157 6 -313 6q-121 0 -243 -4q-278 -8 -552 -50q5 -60 10.5 -119.5t12.5 -118.5q457 54 847.5 77t836.5 23q89 -2 174 -34q32 -30 32 -74q0 -8 -1 -16q-7 -56 -46 -87q-530 -82 -980.5 -108t-905.5 -136q-95 1 -154 83 q-36 28 -36 75q0 33 18 76q-78 164 -93 302q-2 12 -4 25.5t-3 27.5q-8 4 -7 2q-50 55 -50 109q0 36 22 72q4 5 12 14q-11 136 -14 273q-92 52 -109 124q-8 27 -8 53q0 23 6 45zM631 1714q72 158 200 158t9 -158t-200 -158t-9 158z" />
<glyph unicode="&#xca;" horiz-adv-x="2022" d="M8 1276q13 48 103 86q0 40 24 74q59 36 109 36q74 0 128 -78q1 -7 3 -13.5t5 -12.5q226 0 454 1.5t457 3.5q201 -17 292 -119v-10q-1 -58 -53 -91q-58 -35 -135 -58q-130 4 -260 4q-114 0 -227 -3q-243 -7 -485 -26q0 -82 6 -182q215 30 416 29h59q228 -5 449 -24 q146 -36 238 -126q13 -23 13 -45q0 -44 -48 -86q-157 6 -313 6q-121 0 -243 -4q-278 -8 -552 -50q5 -60 10.5 -119.5t12.5 -118.5q457 54 847.5 77t836.5 23q89 -2 174 -34q32 -30 32 -74q0 -8 -1 -16q-7 -56 -46 -87q-530 -82 -980.5 -108t-905.5 -136q-95 1 -154 83 q-36 28 -36 75q0 33 18 76q-78 164 -93 302q-2 12 -4 25.5t-3 27.5q-8 4 -7 2q-50 55 -50 109q0 36 22 72q4 5 12 14q-11 136 -14 273q-92 52 -109 124q-8 27 -8 53q0 23 6 45zM482 1482q96 130 216 251q103 41 192 0q113 -115 225 -251q-76 -43 -204 0q-15 84 -112 114 q-96 -26 -111 -114q-164 -44 -206 0z" />
<glyph unicode="&#xcb;" horiz-adv-x="2031" d="M8 1276q13 48 103 86q0 40 24 74q59 36 109 36q74 0 128 -78q1 -7 3 -13.5t5 -12.5q226 0 454 1.5t457 3.5q201 -17 292 -119v-10q-1 -58 -53 -91q-58 -35 -135 -58q-130 4 -260 4q-114 0 -227 -3q-243 -7 -485 -26q0 -82 6 -182q215 30 416 29h59q228 -5 449 -24 q146 -36 238 -126q13 -23 13 -45q0 -44 -48 -86q-157 6 -313 6q-121 0 -243 -4q-278 -8 -552 -50q5 -60 10.5 -119.5t12.5 -118.5q457 54 847.5 77t836.5 23q89 -2 174 -34q32 -30 32 -74q0 -8 -1 -16q-7 -56 -46 -87q-530 -82 -980.5 -108t-905.5 -136q-95 1 -154 83 q-36 28 -36 75q0 33 18 76q-78 164 -93 302q-2 12 -4 25.5t-3 27.5q-8 4 -7 2q-50 55 -50 109q0 36 22 72q4 5 12 14q-11 136 -14 273q-92 52 -109 124q-8 27 -8 53q0 23 6 45zM522 1547.5q0 102.5 85.5 95t94 -102.5t-85.5 -95t-94 102.5zM894 1541q-1 96 94 102.5 t102.5 -83.5t-94 -102.5t-102.5 83.5z" />
<glyph unicode="&#xcc;" horiz-adv-x="400" d="M-1 760v32q0 373 88 623q25 37 75 60q23 11 47 11q27 0 54 -14q53 -40 67.5 -80.5t16.5 -79.5q-39 -279 -47 -613q-1 -21 -1 -42q0 -309 112 -551q7 -21 7 -43q0 -37 -20 -73q-42 -35 -86 -35q-30 0 -60 16q-52 17 -81 46.5t-68 85.5q-100 263 -104 657zM-1.5 1665.5 q-105.5 138.5 15 138.5t178 -138.5t-15 -138.5t-178 138.5z" />
<glyph unicode="&#xcd;" horiz-adv-x="400" d="M-1 760v32q0 373 88 623q25 37 75 60q23 11 47 11q27 0 54 -14q53 -40 67.5 -80.5t16.5 -79.5q-39 -279 -47 -613q-1 -21 -1 -42q0 -309 112 -551q7 -21 7 -43q0 -37 -20 -73q-42 -35 -86 -35q-30 0 -60 16q-52 17 -81 46.5t-68 85.5q-100 263 -104 657zM159 1685 q72 158 200 158t9 -158t-200 -158t-9 158z" />
<glyph unicode="&#xce;" horiz-adv-x="404" d="M-1 760v32q0 373 88 623q25 37 75 60q23 11 47 11q27 0 54 -14q53 -40 67.5 -80.5t16.5 -79.5q-39 -279 -47 -613q-1 -21 -1 -42q0 -309 112 -551q7 -21 7 -43q0 -37 -20 -73q-42 -35 -86 -35q-30 0 -60 16q-52 17 -81 46.5t-68 85.5q-100 263 -104 657zM-97 1511 q96 130 216 251q103 41 192 0q113 -115 225 -251q-76 -43 -204 0q-15 84 -112 114q-96 -26 -111 -114q-164 -44 -206 0z" />
<glyph unicode="&#xcf;" horiz-adv-x="400" d="M-1 760v32q0 373 88 623q25 37 75 60q23 11 47 11q27 0 54 -14q53 -40 67.5 -80.5t16.5 -79.5q-39 -279 -47 -613q-1 -21 -1 -42q0 -309 112 -551q7 -21 7 -43q0 -37 -20 -73q-42 -35 -86 -35q-30 0 -60 16q-52 17 -81 46.5t-68 85.5q-100 263 -104 657zM-79 1610.5 q0 102.5 85.5 95t94 -102.5t-85.5 -95t-94 102.5zM293 1604q-1 96 94 102.5t102.5 -83.5t-94 -102.5t-102.5 83.5z" />
<glyph unicode="&#xd0;" horiz-adv-x="1479" d="M-3 667v132h161v667h506q170 0 260 -21q126 -29 215 -105q116 -98 173.5 -250.5t57.5 -348.5q0 -224 -71 -385.5t-170 -234.5t-228 -104q-71 -17 -214 -17h-529v667h-161zM352 173h313q146 0 228 27t130 75q69 69 108 185t39 283q0 172 -38.5 275t-100.5 165t-138 86 t-233 24h-308v-494h404v-132h-404v-494z" />
<glyph unicode="&#xd1;" horiz-adv-x="1365" d="M4 185q31 412 86 638t123 515q147 0 217 -63q98 -202 207.5 -458.5t255.5 -419.5q52 85 69.5 194.5t60.5 226.5q49 197 58.5 336.5t58.5 338.5q42 10 81 10q82 0 153 -44q2 -14 2 -37q0 -34 -4 -90q-6 -92 -17.5 -203t-28 -220.5t-33.5 -175.5q-55 -146 -112.5 -332 t-111.5 -331q-59 -27 -116 -27h-15q-64 4 -108 13q-113 131 -241.5 305t-199.5 317q-84 -199 -97 -311t-26 -317q-61 -52 -124 -52q-34 0 -67 15q-43 29 -56 75t-15 97zM360.5 1547q4.5 42 62.5 104q57 62 175 72q87 -15 140 -64q59 -30 94 -30q32 0 49 17.5t24 52t71 34.5 t77.5 -69t-35 -117.5t-100 -60t-97 -5t-148.5 62.5q-50 16 -81 16q-34 0 -50 -9q-44 -19 -43 -66q-64 -52 -103.5 -16t-35 78z" />
<glyph unicode="&#xd2;" horiz-adv-x="1483" d="M6 743q27 197 133 364t223 270q6 5 15 5q27 0 79 -51q16 -16 32 -16q14 0 30 12q33 26 53 40q0 9 -2 21t2 21q24 60 94 91.5t136 31.5q291 0 484 -224.5t257 -571.5q4 -47 4 -92q0 -283 -175 -454q-203 -198 -618 -205h-32q-393 -1 -575 191q-150 157 -151 419 q0 70 11 148zM260 591v-13q0 -266 156 -302q110 -26 229 -26q53 0 108 5q40 -5 78 -5q199 0 351 148q131 129 130 269q0 52 -18 106q-10 153 -127.5 332t-282.5 202q-270 -104 -468 -267q-163 -134 -163 -352q0 -47 7 -97zM314.5 1643.5q-105.5 138.5 15 138.5t178 -138.5 t-15 -138.5t-178 138.5z" />
<glyph unicode="&#xd3;" horiz-adv-x="1483" d="M6 743q27 197 133 364t223 270q6 5 15 5q27 0 79 -51q16 -16 32 -16q14 0 30 12q33 26 53 40q0 9 -2 21t2 21q24 60 94 91.5t136 31.5q291 0 484 -224.5t257 -571.5q4 -47 4 -92q0 -283 -175 -454q-203 -198 -618 -205h-32q-393 -1 -575 191q-150 157 -151 419 q0 70 11 148zM260 591v-13q0 -266 156 -302q110 -26 229 -26q53 0 108 5q40 -5 78 -5q199 0 351 148q131 129 130 269q0 52 -18 106q-10 153 -127.5 332t-282.5 202q-270 -104 -468 -267q-163 -134 -163 -352q0 -47 7 -97zM578 1758q72 158 200 158t9 -158t-200 -158t-9 158 z" />
<glyph unicode="&#xd4;" horiz-adv-x="1483" d="M6 743q27 197 133 364t223 270q6 5 15 5q27 0 79 -51q16 -16 32 -16q14 0 30 12q33 26 53 40q0 9 -2 21t2 21q24 60 94 91.5t136 31.5q291 0 484 -224.5t257 -571.5q4 -47 4 -92q0 -283 -175 -454q-203 -198 -618 -205h-32q-393 -1 -575 191q-150 157 -151 419 q0 70 11 148zM260 591v-13q0 -266 156 -302q110 -26 229 -26q53 0 108 5q40 -5 78 -5q199 0 351 148q131 129 130 269q0 52 -18 106q-10 153 -127.5 332t-282.5 202q-270 -104 -468 -267q-163 -134 -163 -352q0 -47 7 -97zM384 1554q96 130 216 251q103 41 192 0 q113 -115 225 -251q-76 -43 -204 0q-15 84 -112 114q-96 -26 -111 -114q-164 -44 -206 0z" />
<glyph unicode="&#xd5;" horiz-adv-x="1483" d="M6 743q27 197 133 364t223 270q6 5 15 5q27 0 79 -51q16 -16 32 -16q14 0 30 12q33 26 53 40q0 9 -2 21t2 21q24 60 94 91.5t136 31.5q291 0 484 -224.5t257 -571.5q4 -47 4 -92q0 -283 -175 -454q-203 -198 -618 -205h-32q-393 -1 -575 191q-150 157 -151 419 q0 70 11 148zM260 591v-13q0 -266 156 -302q110 -26 229 -26q53 0 108 5q40 -5 78 -5q199 0 351 148q131 129 130 269q0 52 -18 106q-10 153 -127.5 332t-282.5 202q-270 -104 -468 -267q-163 -134 -163 -352q0 -47 7 -97zM460.5 1618q4.5 42 62.5 104q57 62 175 72 q87 -15 140 -64q59 -30 94 -30q32 0 49 17.5t24 52t71 34.5t77.5 -69t-35 -117.5t-100 -60t-97 -5t-148.5 62.5q-50 16 -81 16q-34 0 -50 -9q-44 -19 -43 -66q-64 -52 -103.5 -16t-35 78z" />
<glyph unicode="&#xd6;" horiz-adv-x="1484" d="M6 743q27 197 133 364t223 270q6 5 15 5q27 0 79 -51q16 -16 32 -16q14 0 30 12q33 26 53 40q0 9 -2 21t2 21q24 60 94 91.5t136 31.5q291 0 484 -224.5t257 -571.5q4 -47 4 -92q0 -283 -175 -454q-203 -198 -618 -205h-32q-393 -1 -575 191q-150 157 -151 419 q0 70 11 148zM260 591v-13q0 -266 156 -302q110 -26 229 -26q53 0 108 5q40 -5 78 -5q199 0 351 148q131 129 130 269q0 52 -18 106q-10 153 -127.5 332t-282.5 202q-270 -104 -468 -267q-163 -134 -163 -352q0 -47 7 -97zM516 1658.5q0 102.5 85.5 95t94 -102.5t-85.5 -95 t-94 102.5zM888 1652q-1 96 94 102.5t102.5 -83.5t-94 -102.5t-102.5 83.5z" />
<glyph unicode="&#xd7;" horiz-adv-x="1193" d="M218 371q-64 83 275 360q-331 307 -263 352.5t368 -196.5q313 272 373 211.5t-252 -373.5q314 -314 253 -375t-375 253q-315 -315 -379 -232z" />
<glyph unicode="&#xd8;" horiz-adv-x="1593" d="M83 25l176 197q-98 149 -131 254.5t-33 253.5q0 226 90 402.5t252.5 267.5t361.5 91q134 0 234.5 -35.5t216.5 -123.5l168 188l99 -84l-176 -198q86 -128 116 -224q40 -126 40 -282q0 -225 -91 -401t-255.5 -266t-349.5 -90q-138 0 -250 39q-86 30 -201 115l-168 -188z M295 733q0 -116 22 -206q16 -67 67 -165l746 835q-94 74 -164.5 101t-165.5 27q-219 0 -362 -148.5t-143 -443.5zM469 262q77 -63 142 -88q85 -33 184 -33q218 0 360 154t142 432q0 208 -85 367z" />
<glyph unicode="&#xd9;" horiz-adv-x="1156" d="M11 829q8 133 30.5 268t130.5 271q31 -10 60.5 -1t50.5 -22q22 -12 33.5 -56.5t15.5 -80.5q-47 -169 -47 -337v-36q6 -186 30 -384q13 -70 50 -105t83 -59q101 16 209.5 75.5t198.5 335.5q18 112 20 224q0 11 1 22q0 101 -21 202q-22 90 -49.5 178.5t-57.5 178.5 q-4 24 -4 47q-1 21 3 41q6 41 54 66q61 -13 114.5 -40t83.5 -97q162 -317 162 -596q0 -16 -1 -33v-24q1 -123 -37 -229q-42 -117 -91 -229q-98 -155 -215.5 -273t-287.5 -147q-267 31 -406 262q-65 144 -89 288.5t-24 289.5zM332.5 1606.5q-105.5 138.5 15 138.5t178 -138.5 t-15 -138.5t-178 138.5z" />
<glyph unicode="&#xda;" horiz-adv-x="1148" d="M11 829q8 133 30.5 268t130.5 271q31 -10 60.5 -1t50.5 -22q22 -12 33.5 -56.5t15.5 -80.5q-47 -169 -47 -337v-36q6 -186 30 -384q13 -70 50 -105t83 -59q101 16 209.5 75.5t198.5 335.5q18 112 20 224q0 11 1 22q0 101 -21 202q-22 90 -49.5 178.5t-57.5 178.5 q-4 24 -4 47q-1 21 3 41q6 41 54 66q61 -13 114.5 -40t83.5 -97q162 -317 162 -596q0 -16 -1 -33v-24q1 -123 -37 -229q-42 -117 -91 -229q-98 -155 -215.5 -273t-287.5 -147q-267 31 -406 262q-65 144 -89 288.5t-24 289.5zM441 1648q72 158 200 158t9 -158t-200 -158 t-9 158z" />
<glyph unicode="&#xdb;" horiz-adv-x="1150" d="M11 829q8 133 30.5 268t130.5 271q31 -10 60.5 -1t50.5 -22q22 -12 33.5 -56.5t15.5 -80.5q-47 -169 -47 -337v-36q6 -186 30 -384q13 -70 50 -105t83 -59q101 16 209.5 75.5t198.5 335.5q18 112 20 224q0 11 1 22q0 101 -21 202q-22 90 -49.5 178.5t-57.5 178.5 q-4 24 -4 47q-1 21 3 41q6 41 54 66q61 -13 114.5 -40t83.5 -97q162 -317 162 -596q0 -16 -1 -33v-24q1 -123 -37 -229q-42 -117 -91 -229q-98 -155 -215.5 -273t-287.5 -147q-267 31 -406 262q-65 144 -89 288.5t-24 289.5zM73 1569q96 130 216 251q103 41 192 0 q113 -115 225 -251q-76 -43 -204 0q-15 84 -112 114q-96 -26 -111 -114q-164 -44 -206 0z" />
<glyph unicode="&#xdc;" horiz-adv-x="1154" d="M11 829q8 133 30.5 268t130.5 271q31 -10 60.5 -1t50.5 -22q22 -12 33.5 -56.5t15.5 -80.5q-47 -169 -47 -337v-36q6 -186 30 -384q13 -70 50 -105t83 -59q101 16 209.5 75.5t198.5 335.5q18 112 20 224q0 11 1 22q0 101 -21 202q-22 90 -49.5 178.5t-57.5 178.5 q-4 24 -4 47q-1 21 3 41q6 41 54 66q61 -13 114.5 -40t83.5 -97q162 -317 162 -596q0 -16 -1 -33v-24q1 -123 -37 -229q-42 -117 -91 -229q-98 -155 -215.5 -273t-287.5 -147q-267 31 -406 262q-65 144 -89 288.5t-24 289.5zM99 1619.5q0 102.5 85.5 95t94 -102.5t-85.5 -95 t-94 102.5zM471 1613q-1 96 94 102.5t102.5 -83.5t-94 -102.5t-102.5 83.5z" />
<glyph unicode="&#xdd;" horiz-adv-x="1024" d="M20 1379q28 20 55 20q24 0 48 -15q76 -178 188 -313q78 -116 144 -142.5t128 -29.5q67 187 114 316t132 326q18 17 40 17q28 0 63 -27q80 -47 89 -112q-55 -129 -66 -196.5t-59 -187.5q-132 -211 -206 -430.5t-133 -441.5q-39 -175 -112 -187h-9q-63 0 -77 67 q-11 37 -11 74q0 18 2 37q9 56 28 112q69 240 150 473q-75 3 -150 37q-159 109 -251 277q-55 78 -96 159q-24 46 -24 95q0 35 13 72zM408 1587q72 158 200 158t9 -158t-200 -158t-9 158z" />
<glyph unicode="&#xde;" horiz-adv-x="1366" d="M158 0v1466h194v-298h359q146 0 224 -14q108 -19 181 -69.5t117 -141.5t44 -200q0 -186 -119 -315.5t-430 -129.5h-376v-298h-194zM352 471h379q188 0 267 70t79 196q0 91 -46 157t-122 87q-49 14 -182 14h-375v-524z" />
<glyph unicode="&#xdf;" horiz-adv-x="1251" d="M153 0v999q0 183 44.5 281.5t148.5 154.5t234 56q173 0 272 -86.5t99 -200.5q0 -51 -18 -105t-64 -134.5t-58 -112t-12 -55.5q0 -32 22 -63q21 -32 121 -97q136 -89 181 -143q64 -77 64 -182q0 -139 -102.5 -238t-262.5 -99q-126 0 -221 67.5t-142 173.5l155 72 q50 -93 100 -129t105 -36q76 0 130 52t54 122q0 56 -32 96q-21 26 -112 88q-166 114 -205 171q-40 57 -40 117q0 39 13.5 79t65 128t67.5 132t16 78q0 62 -54.5 109.5t-145.5 47.5q-107 0 -175 -66t-68 -286v-991h-180z" />
<glyph unicode="&#xe0;" horiz-adv-x="1220" d="M13 263q-12 70 -12 141q0 115 31 232q61 142 157 220t214 118q34 13 72 13q57 0 125 -29q112 -48 215 -145q95 -169 195 -304.5t211 -218.5q17 5 32 5q41 0 75 -32q23 -35 23 -69q0 -29 -16 -57q-42 -12 -84 -12t-85 12q-93 34 -179.5 85.5t-162.5 110.5 q-135 -186 -354 -314q-64 -15 -126 -17h-8q-58 0 -114 32q-97 52 -140.5 110t-68.5 119zM254 486q-34 -78 -34 -132q0 -64 46 -98q24 -16 47 -17q25 0 47 20q44 37 95 89q113 161 170 282q8 24 8 47q0 57 -51 101q-13 2 -25 2q-78 0 -169 -73q-60 -53 -134 -221z M134.5 1194.5q-105.5 138.5 15 138.5t178 -138.5t-15 -138.5t-178 138.5z" />
<glyph unicode="&#xe1;" horiz-adv-x="1228" d="M13 263q-12 70 -12 141q0 115 31 232q61 142 157 220t214 118q34 13 72 13q57 0 125 -29q112 -48 215 -145q95 -169 195 -304.5t211 -218.5q17 5 32 5q41 0 75 -32q23 -35 23 -69q0 -29 -16 -57q-42 -12 -84 -12t-85 12q-93 34 -179.5 85.5t-162.5 110.5 q-135 -186 -354 -314q-64 -15 -126 -17h-8q-58 0 -114 32q-97 52 -140.5 110t-68.5 119zM254 486q-34 -78 -34 -132q0 -64 46 -98q24 -16 47 -17q25 0 47 20q44 37 95 89q113 161 170 282q8 24 8 47q0 57 -51 101q-13 2 -25 2q-78 0 -169 -73q-60 -53 -134 -221zM556 1210 q72 158 200 158t9 -158t-200 -158t-9 158z" />
<glyph unicode="&#xe2;" horiz-adv-x="1219" d="M13 263q-12 70 -12 141q0 115 31 232q61 142 157 220t214 118q34 13 72 13q57 0 125 -29q112 -48 215 -145q95 -169 195 -304.5t211 -218.5q17 5 32 5q41 0 75 -32q23 -35 23 -69q0 -29 -16 -57q-42 -12 -84 -12t-85 12q-93 34 -179.5 85.5t-162.5 110.5 q-135 -186 -354 -314q-64 -15 -126 -17h-8q-58 0 -114 32q-97 52 -140.5 110t-68.5 119zM254 486q-34 -78 -34 -132q0 -64 46 -98q24 -16 47 -17q25 0 47 20q44 37 95 89q113 161 170 282q8 24 8 47q0 57 -51 101q-13 2 -25 2q-78 0 -169 -73q-60 -53 -134 -221zM172 1071 q96 130 216 251q103 41 192 0q113 -115 225 -251q-76 -43 -204 0q-15 84 -112 114q-96 -26 -111 -114q-164 -44 -206 0z" />
<glyph unicode="&#xe3;" horiz-adv-x="1223" d="M13 263q-12 70 -12 141q0 115 31 232q61 142 157 220t214 118q34 13 72 13q57 0 125 -29q112 -48 215 -145q95 -169 195 -304.5t211 -218.5q17 5 32 5q41 0 75 -32q23 -35 23 -69q0 -29 -16 -57q-42 -12 -84 -12t-85 12q-93 34 -179.5 85.5t-162.5 110.5 q-135 -186 -354 -314q-64 -15 -126 -17h-8q-58 0 -114 32q-97 52 -140.5 110t-68.5 119zM254 486q-34 -78 -34 -132q0 -64 46 -98q24 -16 47 -17q25 0 47 20q44 37 95 89q113 161 170 282q8 24 8 47q0 57 -51 101q-13 2 -25 2q-78 0 -169 -73q-60 -53 -134 -221zM125.5 1137 q4.5 42 62.5 104q57 62 175 72q87 -15 140 -64q59 -30 94 -30q32 0 49 17.5t24 52t71 34.5t77.5 -69t-35 -117.5t-100 -60t-97 -5t-148.5 62.5q-50 16 -81 16q-34 0 -50 -9q-44 -19 -43 -66q-64 -52 -103.5 -16t-35 78z" />
<glyph unicode="&#xe4;" horiz-adv-x="1218" d="M13 263q-12 70 -12 141q0 115 31 232q61 142 157 220t214 118q34 13 72 13q57 0 125 -29q112 -48 215 -145q95 -169 195 -304.5t211 -218.5q17 5 32 5q41 0 75 -32q23 -35 23 -69q0 -29 -16 -57q-42 -12 -84 -12t-85 12q-93 34 -179.5 85.5t-162.5 110.5 q-135 -186 -354 -314q-64 -15 -126 -17h-8q-58 0 -114 32q-97 52 -140.5 110t-68.5 119zM254 486q-34 -78 -34 -132q0 -64 46 -98q24 -16 47 -17q25 0 47 20q44 37 95 89q113 161 170 282q8 24 8 47q0 57 -51 101q-13 2 -25 2q-78 0 -169 -73q-60 -53 -134 -221zM156 1182.5 q0 102.5 85.5 95t94 -102.5t-85.5 -95t-94 102.5zM528 1176q-1 96 94 102.5t102.5 -83.5t-94 -102.5t-102.5 83.5z" />
<glyph unicode="&#xe5;" horiz-adv-x="1223" d="M13 263q-12 70 -12 141q0 115 31 232q61 142 157 220t214 118q34 13 72 13q57 0 125 -29q112 -48 215 -145q95 -169 195 -304.5t211 -218.5q17 5 32 5q41 0 75 -32q23 -35 23 -69q0 -29 -16 -57q-42 -12 -84 -12t-85 12q-93 34 -179.5 85.5t-162.5 110.5 q-135 -186 -354 -314q-64 -15 -126 -17h-8q-58 0 -114 32q-97 52 -140.5 110t-68.5 119zM254 486q-34 -78 -34 -132q0 -64 46 -98q24 -16 47 -17q25 0 47 20q44 37 95 89q113 161 170 282q8 24 8 47q0 57 -51 101q-13 2 -25 2q-78 0 -169 -73q-60 -53 -134 -221zM395 1338 q-12 73 35 122.5t133 56.5q68 -12 114.5 -47t65.5 -136q-12 -80 -31 -118.5t-148 -64.5q-75 0 -121 53.5t-48 133.5zM459 1359q0 -22 10 -50.5t31.5 -55.5t64.5 -27q70 16 88 40t18 69q-13 45 -34 71.5t-72 37.5q-43 0 -74.5 -31.5t-31.5 -53.5z" />
<glyph unicode="&#xe6;" horiz-adv-x="1821" d="M68 280q0 86 49.5 161.5t138 114.5t282.5 64q150 20 252 49q1 25 1 41q0 126 -52.5 176.5t-183.5 50.5q-87 0 -147 -21t-88.5 -59.5t-47.5 -123.5l-175 21q28 117 80.5 185.5t150.5 107.5t229 39q167 0 269 -50q59 -29 99 -93q64 70 145 106.5t196 36.5q162 0 268 -78.5 t155 -207.5t49 -254q0 -19 -2 -61h-767q2 -144 35.5 -209t107 -108.5t161.5 -43.5q103 0 174.5 59t98.5 166l188 -24q-50 -167 -170 -258t-298 -91q-127 0 -222.5 48t-172.5 150q-104 -102 -210.5 -150t-229.5 -48q-172 0 -267.5 88.5t-95.5 215.5zM259 286q0 -71 53 -119.5 t154 -48.5q115 0 200.5 57t111.5 142q15 52 15 216q-79 -34 -322 -73q-109 -17 -153 -51q-59 -47 -59 -123zM969 633h584q-14 158 -90 231t-198 73q-126 0 -206.5 -80t-89.5 -224z" />
<glyph unicode="&#xe7;" horiz-adv-x="1295" d="M9 609q139 280 466 461q75 29 145 29q101 0 193 -60q72 -41 83 -80q6 -21 6 -43q0 -18 -4 -35q-53 -47 -112 -47q-45 0 -94 28q-227 -110 -308 -222q-64 -70 -70 -149q-1 -19 -1 -38q0 -58 13 -110q11 -76 109 -76q15 0 29 1q126 12 282.5 62t302.5 106.5t202 59.5 q22 3 42 3q102 0 130 -75q19 -21 19 -41q0 -4 -1 -9q-5 -25 -9 -50q-237 -117 -467.5 -196t-457.5 -133h-3q-254 0 -398 183q-109 138 -109 312q0 58 12 119zM324.5 -357.5q-39.5 43.5 6.5 62.5t108 19t100 26q36 48 -10 81.5t-90.5 48t24.5 163.5h134l-33 -107 q85 -10 121 -52.5t43 -68.5t-5 -73t-72 -95t-205 -48q-82 0 -121.5 43.5z" />
<glyph unicode="&#xe8;" horiz-adv-x="1036" d="M-4 615q15 21 59.5 30.5t65.5 29.5q63 58 129 116.5t148 107.5q133 63 218 65q21 0 42 1q62 0 120 -5q140 -28 212 -100q55 -73 55 -145q0 -31 -10 -61q-102 -91 -218 -154.5t-240 -108.5q-76 -39 -151 -51.5t-150 -16.5v-9q0 -35 27 -57q20 -16 53 -16q19 0 42 5 q117 45 234.5 80.5t234.5 80.5q66 28 109 27.5t64 -27.5q76 -43 76 -86q0 -18 -14 -36q-148 -50 -240.5 -101t-150.5 -100q-106 -70 -213 -80q-50 -4 -99 -4q-57 0 -113 6q-122 28 -228 201q-39 100 -41 203.5t-21 204.5zM326 532q38 3 113 11q96 45 185 92t161 105 q-41 12 -81 24q-10 3 -22 4q-37 0 -94 -28q-97 -53 -155.5 -105t-106.5 -103zM285.5 1130.5q-105.5 138.5 15 138.5t178 -138.5t-15 -138.5t-178 138.5z" />
<glyph unicode="&#xe9;" horiz-adv-x="1051" d="M-4 615q15 21 59.5 30.5t65.5 29.5q63 58 129 116.5t148 107.5q133 63 218 65q21 0 42 1q62 0 120 -5q140 -28 212 -100q55 -73 55 -145q0 -31 -10 -61q-102 -91 -218 -154.5t-240 -108.5q-76 -39 -151 -51.5t-150 -16.5v-9q0 -35 27 -57q20 -16 53 -16q19 0 42 5 q117 45 234.5 80.5t234.5 80.5q66 28 109 27.5t64 -27.5q76 -43 76 -86q0 -18 -14 -36q-148 -50 -240.5 -101t-150.5 -100q-106 -70 -213 -80q-50 -4 -99 -4q-57 0 -113 6q-122 28 -228 201q-39 100 -41 203.5t-21 204.5zM326 532q38 3 113 11q96 45 185 92t161 105 q-41 12 -81 24q-10 3 -22 4q-37 0 -94 -28q-97 -53 -155.5 -105t-106.5 -103zM439 1150q72 158 200 158t9 -158t-200 -158t-9 158z" />
<glyph unicode="&#xea;" horiz-adv-x="1041" d="M-4 615q15 21 59.5 30.5t65.5 29.5q63 58 129 116.5t148 107.5q133 63 218 65q21 0 42 1q62 0 120 -5q140 -28 212 -100q55 -73 55 -145q0 -31 -10 -61q-102 -91 -218 -154.5t-240 -108.5q-76 -39 -151 -51.5t-150 -16.5v-9q0 -35 27 -57q20 -16 53 -16q19 0 42 5 q117 45 234.5 80.5t234.5 80.5q66 28 109 27.5t64 -27.5q76 -43 76 -86q0 -18 -14 -36q-148 -50 -240.5 -101t-150.5 -100q-106 -70 -213 -80q-50 -4 -99 -4q-57 0 -113 6q-122 28 -228 201q-39 100 -41 203.5t-21 204.5zM326 532q38 3 113 11q96 45 185 92t161 105 q-41 12 -81 24q-10 3 -22 4q-37 0 -94 -28q-97 -53 -155.5 -105t-106.5 -103zM98 1037q96 130 216 251q103 41 192 0q113 -115 225 -251q-76 -43 -204 0q-15 84 -112 114q-96 -26 -111 -114q-164 -44 -206 0z" />
<glyph unicode="&#xeb;" horiz-adv-x="1045" d="M-4 615q15 21 59.5 30.5t65.5 29.5q63 58 129 116.5t148 107.5q133 63 218 65q21 0 42 1q62 0 120 -5q140 -28 212 -100q55 -73 55 -145q0 -31 -10 -61q-102 -91 -218 -154.5t-240 -108.5q-76 -39 -151 -51.5t-150 -16.5v-9q0 -35 27 -57q20 -16 53 -16q19 0 42 5 q117 45 234.5 80.5t234.5 80.5q66 28 109 27.5t64 -27.5q76 -43 76 -86q0 -18 -14 -36q-148 -50 -240.5 -101t-150.5 -100q-106 -70 -213 -80q-50 -4 -99 -4q-57 0 -113 6q-122 28 -228 201q-39 100 -41 203.5t-21 204.5zM326 532q38 3 113 11q96 45 185 92t161 105 q-41 12 -81 24q-10 3 -22 4q-37 0 -94 -28q-97 -53 -155.5 -105t-106.5 -103zM151 1129.5q0 102.5 85.5 95t94 -102.5t-85.5 -95t-94 102.5zM523 1123q-1 96 94 102.5t102.5 -83.5t-94 -102.5t-102.5 83.5z" />
<glyph unicode="&#xec;" horiz-adv-x="401" d="M3.5 582q-1.5 219 98.5 390q174 52 248 -44q-41 -170 -57.5 -340.5t-16.5 -341.5q31 -3 63.5 -4t66.5 -3q104 -69 86 -136q-19 -95 -137 -112q-101 21 -149 44q-150 78 -185 199q-16 129 -17.5 348zM84.5 1204.5q-105.5 138.5 15 138.5t178 -138.5t-15 -138.5t-178 138.5 z" />
<glyph unicode="&#xed;" horiz-adv-x="400" d="M3.5 582q-1.5 219 98.5 390q174 52 248 -44q-41 -170 -57.5 -340.5t-16.5 -341.5q31 -3 63.5 -4t66.5 -3q104 -69 86 -136q-19 -95 -137 -112q-101 21 -149 44q-150 78 -185 199q-16 129 -17.5 348zM234 1238q72 158 200 158t9 -158t-200 -158t-9 158z" />
<glyph unicode="&#xee;" horiz-adv-x="399" d="M3.5 582q-1.5 219 98.5 390q174 52 248 -44q-41 -170 -57.5 -340.5t-16.5 -341.5q31 -3 63.5 -4t66.5 -3q104 -69 86 -136q-19 -95 -137 -112q-101 21 -149 44q-150 78 -185 199q-16 129 -17.5 348zM-86 1076q96 130 216 251q103 41 192 0q113 -115 225 -251 q-76 -43 -204 0q-15 84 -112 114q-96 -26 -111 -114q-164 -44 -206 0z" />
<glyph unicode="&#xef;" horiz-adv-x="405" d="M3.5 582q-1.5 219 98.5 390q174 52 248 -44q-41 -170 -57.5 -340.5t-16.5 -341.5q31 -3 63.5 -4t66.5 -3q104 -69 86 -136q-19 -95 -137 -112q-101 21 -149 44q-150 78 -185 199q-16 129 -17.5 348zM-32 1209.5q0 102.5 85.5 95t94 -102.5t-85.5 -95t-94 102.5zM340 1203 q-1 96 94 102.5t102.5 -83.5t-94 -102.5t-102.5 83.5z" />
<glyph unicode="&#xf0;" horiz-adv-x="1139" d="M73 517q0 261 129 403t323 142q58 0 102 -12t110 -47q-36 73 -63 113.5t-79 99.5l-275 -127l-44 103l239 109q-97 90 -207 165h217q72 -54 125 -102l214 102l45 -102l-172 -83q320 -368 320 -760q0 -253 -139 -399.5t-354 -146.5q-255 0 -398 194q-93 127 -93 348z M257 512q0 -194 87.5 -292t218.5 -98q128 0 217.5 103.5t89.5 303.5q0 192 -90.5 293.5t-222.5 101.5q-130 0 -215 -101.5t-85 -310.5z" />
<glyph unicode="&#xf1;" horiz-adv-x="881" d="M-6 299q39 146 51.5 247.5t28.5 248.5q0 94 -48 185q-10 14 -10 28q0 35 64 69q31 24 62 24l62 -24q69 -29 94 -67t35 -80q10 -13 10 -45q1 -33 -11 -89q-22 -108 -25 -136q26 54 101.5 173t163.5 152q71 19 117 19h17q49 -4 87 -19q126 -87 126 -232q0 -26 -4 -55 q-30 -96 -59 -191.5t-58 -189.5q-7 -56 -12.5 -111t-11.5 -111q-15 -22 -30.5 -45t-30.5 -45q-18 -2 -34 -2q-61 0 -107 32q-100 49 -100 140q0 9 1 19q30 211 123 380q29 100 29 120q0 5 -2 5q-2 1 -8 -9q-27 -44 -103 -135q-98 -118 -135.5 -172.5t-49.5 -84t-17 -55 t-39 -86.5q-12 -34 -84 -49q-25 -5 -47 -5q-41 0 -71 18q-50 46 -62.5 93.5t-12.5 84.5zM216.5 1223q4.5 42 62.5 104q57 62 175 72q87 -15 140 -64q59 -30 94 -30q32 0 49 17.5t24 52t71 34.5t77.5 -69t-35 -117.5t-100 -60t-97 -5t-148.5 62.5q-50 16 -81 16q-34 0 -50 -9 q-44 -19 -43 -66q-64 -52 -103.5 -16t-35 78z" />
<glyph unicode="&#xf2;" horiz-adv-x="1072" d="M-4 509v31q0 140 32 277q63 115 191 170.5t280 71.5q176 -13 301.5 -65.5t216.5 -131.5q101 -122 123 -234q10 -51 10 -100q0 -60 -14 -119q-128 -153 -260 -239t-269 -121q-100 -41 -178 -41q-26 0 -50 4q-95 18 -173 70q-114 78 -150 192.5t-60 234.5zM201 548 q-4 -32 -4 -61q-1 -109 63 -159q44 -35 112 -35q57 0 132 25q179 73 335 188q25 17 49 45.5t48 48.5q-21 92 -92 131q-114 106 -245 106q-70 0 -145 -31q-214 -88 -253 -258zM361.5 1297.5q-105.5 138.5 15 138.5t178 -138.5t-15 -138.5t-178 138.5z" />
<glyph unicode="&#xf3;" horiz-adv-x="1072" d="M-4 509v31q0 140 32 277q63 115 191 170.5t280 71.5q176 -13 301.5 -65.5t216.5 -131.5q101 -122 123 -234q10 -51 10 -100q0 -60 -14 -119q-128 -153 -260 -239t-269 -121q-100 -41 -178 -41q-26 0 -50 4q-95 18 -173 70q-114 78 -150 192.5t-60 234.5zM201 548 q-4 -32 -4 -61q-1 -109 63 -159q44 -35 112 -35q57 0 132 25q179 73 335 188q25 17 49 45.5t48 48.5q-21 92 -92 131q-114 106 -245 106q-70 0 -145 -31q-214 -88 -253 -258zM535 1352q72 158 200 158t9 -158t-200 -158t-9 158z" />
<glyph unicode="&#xf4;" horiz-adv-x="1078" d="M-4 509v31q0 140 32 277q63 115 191 170.5t280 71.5q176 -13 301.5 -65.5t216.5 -131.5q101 -122 123 -234q10 -51 10 -100q0 -60 -14 -119q-128 -153 -260 -239t-269 -121q-100 -41 -178 -41q-26 0 -50 4q-95 18 -173 70q-114 78 -150 192.5t-60 234.5zM201 548 q-4 -32 -4 -61q-1 -109 63 -159q44 -35 112 -35q57 0 132 25q179 73 335 188q25 17 49 45.5t48 48.5q-21 92 -92 131q-114 106 -245 106q-70 0 -145 -31q-214 -88 -253 -258zM197 1163q96 130 216 251q103 41 192 0q113 -115 225 -251q-76 -43 -204 0q-15 84 -112 114 q-96 -26 -111 -114q-164 -44 -206 0z" />
<glyph unicode="&#xf5;" horiz-adv-x="1067" d="M-4 509v31q0 140 32 277q63 115 191 170.5t280 71.5q176 -13 301.5 -65.5t216.5 -131.5q101 -122 123 -234q10 -51 10 -100q0 -60 -14 -119q-128 -153 -260 -239t-269 -121q-100 -41 -178 -41q-26 0 -50 4q-95 18 -173 70q-114 78 -150 192.5t-60 234.5zM201 548 q-4 -32 -4 -61q-1 -109 63 -159q44 -35 112 -35q57 0 132 25q179 73 335 188q25 17 49 45.5t48 48.5q-21 92 -92 131q-114 106 -245 106q-70 0 -145 -31q-214 -88 -253 -258zM127.5 1235q4.5 42 62.5 104q57 62 175 72q87 -15 140 -64q59 -30 94 -30q32 0 49 17.5t24 52 t71 34.5t77.5 -69t-35 -117.5t-100 -60t-97 -5t-148.5 62.5q-50 16 -81 16q-34 0 -50 -9q-44 -19 -43 -66q-64 -52 -103.5 -16t-35 78z" />
<glyph unicode="&#xf6;" horiz-adv-x="1072" d="M-4 509v31q0 140 32 277q63 115 191 170.5t280 71.5q176 -13 301.5 -65.5t216.5 -131.5q101 -122 123 -234q10 -51 10 -100q0 -60 -14 -119q-128 -153 -260 -239t-269 -121q-100 -41 -178 -41q-26 0 -50 4q-95 18 -173 70q-114 78 -150 192.5t-60 234.5zM201 548 q-4 -32 -4 -61q-1 -109 63 -159q44 -35 112 -35q57 0 132 25q179 73 335 188q25 17 49 45.5t48 48.5q-21 92 -92 131q-114 106 -245 106q-70 0 -145 -31q-214 -88 -253 -258zM170 1263.5q0 102.5 85.5 95t94 -102.5t-85.5 -95t-94 102.5zM542 1257q-1 96 94 102.5 t102.5 -83.5t-94 -102.5t-102.5 83.5z" />
<glyph unicode="&#xf7;" horiz-adv-x="1124" d="M78 723q0 84 484 84t484 -84t-484 -84t-484 84zM459 421.5q0 102.5 102.5 102.5t102.5 -102.5t-102.5 -102.5t-102.5 102.5zM459 1024.5q0 102.5 102.5 102.5t102.5 -102.5t-102.5 -102.5t-102.5 102.5z" />
<glyph unicode="&#xf8;" horiz-adv-x="1251" d="M129 516q0 301 147 435.5t345 134.5q82 0 151 -21t147 -66l99 128l96 -70l-107 -138q63 -86 86 -156q31 -100 31 -233q0 -300 -169 -441q-137 -113 -330 -113q-159 0 -281 80l-105 -135l-94 71l108 141q-59 68 -84 136q-40 109 -40 247zM314 531q0 -150 52 -251l452 587 q-91 70 -191 70q-133 0 -223 -102t-90 -304zM444 187q78 -63 176 -63q139 0 229.5 102t90.5 306q0 76 -12 133q-8 42 -35 105z" />
<glyph unicode="&#xf9;" horiz-adv-x="791" d="M-8 544q0 4 -1 8q0 165 20 309q9 43 111 87q27 6 45 6q21 0 31 -8q18 -15 39 -30q-15 -157 -15 -275q0 -185 36 -274t79 -88q28 0 60 38q79 97 137 311q36 131 36 264q0 84 -14 169q39 22 79 22q35 0 71 -18q76 -37 110 -106q5 -34 4 -82q0 -35 -2 -79q-6 -102 -34 -206 q-45 -203 -123 -374.5t-225 -204.5q-70 -21 -128 -21q-80 0 -136 42q-94 72 -137 206t-43 304zM231.5 1139.5q-105.5 138.5 15 138.5t178 -138.5t-15 -138.5t-178 138.5z" />
<glyph unicode="&#xfa;" horiz-adv-x="795" d="M-8 544q0 4 -1 8q0 165 20 309q9 43 111 87q27 6 45 6q21 0 31 -8q18 -15 39 -30q-15 -157 -15 -275q0 -185 36 -274t79 -88q28 0 60 38q79 97 137 311q36 131 36 264q0 84 -14 169q39 22 79 22q35 0 71 -18q76 -37 110 -106q5 -34 4 -82q0 -35 -2 -79q-6 -102 -34 -206 q-45 -203 -123 -374.5t-225 -204.5q-70 -21 -128 -21q-80 0 -136 42q-94 72 -137 206t-43 304zM280 1171q72 158 200 158t9 -158t-200 -158t-9 158z" />
<glyph unicode="&#xfb;" horiz-adv-x="796" d="M-8 544q0 4 -1 8q0 165 20 309q9 43 111 87q27 6 45 6q21 0 31 -8q18 -15 39 -30q-15 -157 -15 -275q0 -185 36 -274t79 -88q28 0 60 38q79 97 137 311q36 131 36 264q0 84 -14 169q39 22 79 22q35 0 71 -18q76 -37 110 -106q5 -34 4 -82q0 -35 -2 -79q-6 -102 -34 -206 q-45 -203 -123 -374.5t-225 -204.5q-70 -21 -128 -21q-80 0 -136 42q-94 72 -137 206t-43 304zM63 1139q96 130 216 251q103 41 192 0q113 -115 225 -251q-76 -43 -204 0q-15 84 -112 114q-96 -26 -111 -114q-164 -44 -206 0z" />
<glyph unicode="&#xfc;" horiz-adv-x="791" d="M-8 544q0 4 -1 8q0 165 20 309q9 43 111 87q27 6 45 6q21 0 31 -8q18 -15 39 -30q-15 -157 -15 -275q0 -185 36 -274t79 -88q28 0 60 38q79 97 137 311q36 131 36 264q0 84 -14 169q39 22 79 22q35 0 71 -18q76 -37 110 -106q5 -34 4 -82q0 -35 -2 -79q-6 -102 -34 -206 q-45 -203 -123 -374.5t-225 -204.5q-70 -21 -128 -21q-80 0 -136 42q-94 72 -137 206t-43 304zM75 1213.5q0 102.5 85.5 95t94 -102.5t-85.5 -95t-94 102.5zM447 1207q-1 96 94 102.5t102.5 -83.5t-94 -102.5t-102.5 83.5z" />
<glyph unicode="&#xfd;" horiz-adv-x="742" d="M-3 856q4 39 33 39q12 0 29 -7q12 3 25 3q29 0 64 -15q51 -23 82 -53q-18 -66 -18 -147.5t18 -180.5q35 -191 132 -191h6h10q94 0 148 185q12 161 12 264q0 62 -4 103q-3 25 -3 49q0 85 33 170q38 19 79 19q13 0 27 -2q46 -29 81 -60t33 -75q-9 -94 -19 -338t-34 -338 q-36 -84 -73.5 -285t-76.5 -252q-115 -173 -220 -173q-101 0 -193 160q178 60 214 155t47 193q-116 -6 -117 -6h-1q-143 50 -252 200q-27 71 -40 291t-22 292zM245 1138q72 158 200 158t9 -158t-200 -158t-9 158z" />
<glyph unicode="&#xfe;" horiz-adv-x="1139" d="M135 -407v1873h180v-516q73 77 128 102q72 34 164 34q136 0 240 -70t157 -197.5t53 -279.5q0 -164 -58.5 -294t-170 -199.5t-233.5 -69.5q-83 0 -154 33q-54 26 -126 101v-517h-180zM298 525q0 -205 83 -303t201 -98q120 0 205.5 101.5t85.5 314.5q0 203 -83.5 304 t-199.5 101q-115 0 -203.5 -107.5t-88.5 -312.5z" />
<glyph unicode="&#xff;" horiz-adv-x="743" d="M-3 856q4 39 33 39q12 0 29 -7q12 3 25 3q29 0 64 -15q51 -23 82 -53q-18 -66 -18 -147.5t18 -180.5q35 -191 132 -191h6h10q94 0 148 185q12 161 12 264q0 62 -4 103q-3 25 -3 49q0 85 33 170q38 19 79 19q13 0 27 -2q46 -29 81 -60t33 -75q-9 -94 -19 -338t-34 -338 q-36 -84 -73.5 -285t-76.5 -252q-115 -173 -220 -173q-101 0 -193 160q178 60 214 155t47 193q-116 -6 -117 -6h-1q-143 50 -252 200q-27 71 -40 291t-22 292zM49 1193.5q0 102.5 85.5 95t94 -102.5t-85.5 -95t-94 102.5zM421 1187q-1 96 94 102.5t102.5 -83.5t-94 -102.5 t-102.5 83.5z" />
<glyph unicode="&#x131;" horiz-adv-x="400" d="M3.5 582q-1.5 219 98.5 390q174 52 248 -44q-41 -170 -57.5 -340.5t-16.5 -341.5q31 -3 63.5 -4t66.5 -3q104 -69 86 -136q-19 -95 -137 -112q-101 21 -149 44q-150 78 -185 199q-16 129 -17.5 348z" />
<glyph unicode="&#x152;" horiz-adv-x="3162" d="M6 743q27 197 133 364t223 270q25 22 94 -46q29 -30 62 -4t53 40q0 9 -2 21t2 21q24 60 94 91.5t136 31.5q291 0 484 -224.5t257 -571.5q32 -348 -171 -546t-618 -205q-417 -8 -607.5 191.5t-139.5 566.5zM260 591q-4 -278 156.5 -315.5t336.5 -20.5q249 -34 428.5 143 t112.5 375q-10 153 -127.5 332t-282.5 202q-271 -104 -468.5 -267t-155.5 -449zM1189 1324q13 48 103 86q0 40 24 74q146 89 237 -42q1 -7 3 -13.5t5 -12.5q226 0 454 1.5t457 3.5q201 -17 292 -119q5 -66 -52.5 -101t-135.5 -58q-244 8 -487 1t-485 -26q0 -82 6 -182 q247 34 475 29t449 -24q146 -36 238 -126q37 -67 -35 -131q-278 11 -555.5 2.5t-552.5 -50.5q5 -60 10.5 -119.5t12.5 -118.5q457 54 847.5 77t836.5 23q89 -2 174 -34q38 -35 31 -90.5t-46 -86.5q-530 -82 -980.5 -108t-905.5 -136q-95 1 -154 83q-61 47 -18 151 q-78 164 -93 302q-2 12 -4 25.5t-3 27.5q-8 4 -7 2q-84 92 -28 181q4 5 12 14q-11 136 -14 273q-92 52 -109 124q-15 50 -2 98z" />
<glyph unicode="&#x153;" horiz-adv-x="1933" d="M82 518q0 169 58.5 302.5t178 199.5t265.5 66q138 0 240.5 -57.5t153.5 -145.5q64 93 164.5 148t224.5 55q220 0 356 -151t134 -452h-784q3 -166 92.5 -262.5t223.5 -96.5q99 0 170.5 55.5t103.5 166.5l180 -26q-43 -165 -160.5 -254.5t-296.5 -89.5q-134 0 -240 52.5 t-168 146.5q-76 -99 -175 -149t-221 -50q-225 0 -362.5 143t-137.5 399zM267 533q0 -186 71 -283q92 -126 239 -126q129 0 221 106t92 305q0 198 -90.5 300.5t-222.5 102.5q-87 0 -160 -49t-111.5 -145t-38.5 -211zM1080 631h587q-12 151 -91.5 229t-197.5 78 q-120 0 -203.5 -82t-94.5 -225z" />
<glyph unicode="&#x178;" horiz-adv-x="1020" d="M20 1379q28 20 55 20q24 0 48 -15q76 -178 188 -313q78 -116 144 -142.5t128 -29.5q67 187 114 316t132 326q18 17 40 17q28 0 63 -27q80 -47 89 -112q-55 -129 -66 -196.5t-59 -187.5q-132 -211 -206 -430.5t-133 -441.5q-39 -175 -112 -187h-9q-63 0 -77 67 q-11 37 -11 74q0 18 2 37q9 56 28 112q69 240 150 473q-75 3 -150 37q-159 109 -251 277q-55 78 -96 159q-24 46 -24 95q0 35 13 72zM148 1515.5q0 102.5 85.5 95t94 -102.5t-85.5 -95t-94 102.5zM520 1509q-1 96 94 102.5t102.5 -83.5t-94 -102.5t-102.5 83.5z" />
<glyph unicode="&#x2c6;" d="M25 1192q96 130 216 251q103 41 192 0q113 -115 225 -251q-76 -43 -204 0q-15 84 -112 114q-96 -26 -111 -114q-164 -44 -206 0z" />
<glyph unicode="&#x2da;" d="M174 1338q-12 73 35 122.5t133 56.5q68 -12 114.5 -47t65.5 -136q-12 -80 -31 -118.5t-148 -64.5q-75 0 -121 53.5t-48 133.5zM238 1359q0 -22 10 -50.5t31.5 -55.5t64.5 -27q70 16 88 40t18 69q-13 45 -34 71.5t-72 37.5q-43 0 -74.5 -31.5t-31.5 -53.5z" />
<glyph unicode="&#x2dc;" d="M1.5 1281q4.5 42 62.5 104q57 62 175 72q87 -15 140 -64q59 -30 94 -30q32 0 49 17.5t24 52t71 34.5t77.5 -69t-35 -117.5t-100 -60t-97 -5t-148.5 62.5q-50 16 -81 16q-34 0 -50 -9q-44 -19 -43 -66q-64 -52 -103.5 -16t-35 78z" />
<glyph unicode="&#x2000;" horiz-adv-x="958" />
<glyph unicode="&#x2001;" horiz-adv-x="1916" />
<glyph unicode="&#x2002;" horiz-adv-x="958" />
<glyph unicode="&#x2003;" horiz-adv-x="1916" />
<glyph unicode="&#x2004;" horiz-adv-x="638" />
<glyph unicode="&#x2005;" horiz-adv-x="479" />
<glyph unicode="&#x2006;" horiz-adv-x="319" />
<glyph unicode="&#x2007;" horiz-adv-x="319" />
<glyph unicode="&#x2008;" horiz-adv-x="239" />
<glyph unicode="&#x2009;" horiz-adv-x="383" />
<glyph unicode="&#x200a;" horiz-adv-x="106" />
<glyph unicode="&#x2010;" d="M65 530.5q0 90.5 276.5 90.5t276.5 -90.5t-276.5 -90.5t-276.5 90.5z" />
<glyph unicode="&#x2011;" d="M65 530.5q0 90.5 276.5 90.5t276.5 -90.5t-276.5 -90.5t-276.5 90.5z" />
<glyph unicode="&#x2012;" d="M65 530.5q0 90.5 276.5 90.5t276.5 -90.5t-276.5 -90.5t-276.5 90.5z" />
<glyph unicode="&#x2013;" horiz-adv-x="1139" d="M-4 530.5q0 72.5 569.5 72.5t569.5 -72.5t-569.5 -72.5t-569.5 72.5z" />
<glyph unicode="&#x2014;" horiz-adv-x="2048" d="M0 530.5q0 72.5 1024 72.5t1024 -72.5t-1024 -72.5t-1024 72.5z" />
<glyph unicode="&#x2018;" horiz-adv-x="455" d="M128 1094v149q0 67 16 97t37 70t66.5 60.5t67.5 -14.5t-5.5 -46.5t-53.5 -57t-27.5 -89t45.5 -43.5t47 -104.5t-96.5 -104.5t-96.5 83z" />
<glyph unicode="&#x2019;" horiz-adv-x="455" d="M124 1376.5q0 104.5 96.5 104.5t96.5 -83v-149q0 -67 -15.5 -96.5t-37 -70t-67 -61t-67.5 15t5 46.5t53.5 58.5t28 89t-45.5 41.5t-47 104.5z" />
<glyph unicode="&#x201a;" horiz-adv-x="455" d="M124 104.5q0 104.5 96.5 104.5t96.5 -83v-149q0 -67 -15.5 -96.5t-37 -70t-67 -61t-67.5 15t5 46.5t53.5 58.5t28 89t-45.5 41.5t-47 104.5z" />
<glyph unicode="&#x201c;" d="M83 1094v149q0 67 16 97t37 70t66.5 60.5t67.5 -14.5t-5.5 -46.5t-53.5 -57t-27.5 -89t45.5 -43.5t47 -104.5t-96.5 -104.5t-96.5 83zM393 1094v149q0 67 16 97t37 70t66.5 60.5t67.5 -14.5t-5.5 -46.5t-53.5 -57t-27.5 -89t45.5 -43.5t47 -104.5t-96.5 -104.5t-96.5 83z " />
<glyph unicode="&#x201d;" d="M87 1376.5q0 104.5 96.5 104.5t96.5 -83v-149q0 -67 -15.5 -96.5t-37 -70t-67 -61t-67.5 15t5 46.5t53.5 58.5t28 89t-45.5 41.5t-47 104.5zM397 1376.5q0 104.5 96.5 104.5t96.5 -83v-149q0 -67 -15.5 -96.5t-37 -70t-67 -61t-67.5 15t5 46.5t53.5 58.5t28 89 t-45.5 41.5t-47 104.5z" />
<glyph unicode="&#x201e;" d="M87 104.5q0 104.5 96.5 104.5t96.5 -83v-149q0 -67 -15.5 -96.5t-37 -70t-67 -61t-67.5 15t5 46.5t53.5 58.5t28 89t-45.5 41.5t-47 104.5zM397 104.5q0 104.5 96.5 104.5t96.5 -83v-149q0 -67 -15.5 -96.5t-37 -70t-67 -61t-67.5 15t5 46.5t53.5 58.5t28 89t-45.5 41.5 t-47 104.5z" />
<glyph unicode="&#x2022;" horiz-adv-x="717" d="M109 718q18 189 188 221t244.5 -42t74.5 -179t-74.5 -179.5t-179.5 -74.5q-247 25 -253 254z" />
<glyph unicode="&#x2026;" horiz-adv-x="2048" d="M239 102.5q0 102.5 102.5 102.5t102.5 -102.5t-102.5 -102.5t-102.5 102.5zM922 102.5q0 102.5 102.5 102.5t102.5 -102.5t-102.5 -102.5t-102.5 102.5zM1604 102.5q0 102.5 103 102.5t103 -102.5t-103 -102.5t-103 102.5z" />
<glyph unicode="&#x202f;" horiz-adv-x="383" />
<glyph unicode="&#x2039;" d="M249.5 299.5q-157.5 227.5 0 456t232 228.5t-58 -228.5t0 -456t58 -227.5t-232 227.5z" />
<glyph unicode="&#x203a;" d="M166.5 72q-74.5 0 58 229t0 456t-58 227t226.5 -224t0 -456t-226.5 -232z" />
<glyph unicode="&#x205f;" horiz-adv-x="479" />
<glyph unicode="&#x20ac;" horiz-adv-x="1139" d="M-28 535l28 134h105q-3 42 -3 91q0 20 1 41h-131l28 134h116q62 326 323 468q161 88 355 88q186 0 313 -81l-40 -186q-122 101 -277 101q-168 0 -282 -81q-68 -48 -123 -136q-56 -91 -66 -173h682l-27 -134h-671q-1 -21 -1 -40q0 -77 1 -92h644l-28 -134h-595 q42 -229 202 -325q115 -69 249 -69q187 0 292 98v-206q-125 -58 -276 -58q-452 0 -611 376q-32 76 -55 184h-153z" />
<glyph unicode="&#x2122;" horiz-adv-x="2048" d="M225 1345v121h666v-121h-266v-694h-136v694h-264zM982 651v815h200l206 -651l199 651h196v-815h-124v684l-210 -684h-123l-219 694v-694h-125z" />
<glyph unicode="&#xe000;" horiz-adv-x="1030" d="M0 1030h1030v-1030h-1030v1030z" />
<glyph unicode="&#xf001;" horiz-adv-x="1024" d="M23 923v139h160v103q0 158 68 242t215 84q99 0 183 -23l-28 -152q-53 9 -97 9q-93 0 -127 -37t-34 -157v-69h206v-139h-206v-923h-180v923h-160zM705 0v1062h180v-1062h-180zM705 1259v207h180v-207h-180z" />
<glyph unicode="&#xfb01;" horiz-adv-x="1024" d="M23 923v139h160v103q0 158 68 242t215 84q99 0 183 -23l-28 -152q-53 9 -97 9q-93 0 -127 -37t-34 -157v-69h206v-139h-206v-923h-180v923h-160zM705 0v1062h180v-1062h-180zM705 1259v207h180v-207h-180z" />
<glyph unicode="&#xf002;" horiz-adv-x="1024" d="M23 923v139h160v103q0 158 68 242t215 84q99 0 183 -23l-28 -152q-53 9 -97 9q-93 0 -127 -37t-34 -157v-69h206v-139h-206v-923h-180v923h-160zM703 0v1466h180v-1466h-180z" />
<glyph unicode="&#xfb02;" horiz-adv-x="1024" d="M23 923v139h160v103q0 158 68 242t215 84q99 0 183 -23l-28 -152q-53 9 -97 9q-93 0 -127 -37t-34 -157v-69h206v-139h-206v-923h-180v923h-160zM703 0v1466h180v-1466h-180z" />
<glyph unicode="&#xfb03;" horiz-adv-x="2435" d="M2004 582q0 3 -1 6q0 215 99 384q61 18 110 18q90 0 138 -62q-41 -170 -57.5 -340.5t-16.5 -341.5q31 -3 63.5 -4t66.5 -3q89 -59 89 -116q0 -10 -3 -20q-19 -95 -137 -112q-101 21 -149 44q-150 78 -185 199q-15 129 -17 348zM2139 1258q-17 37 -17 74q0 53 35 106 q47 29 94 30q28 0 55 -11q13 1 26 1q52 0 86 -17q42 -21 74 -53q38 -80 38 -137q0 -23 -6 -43q-40 -29 -119 -29q-48 0 -111 11q-88 6 -155 68zM941 -297q10 38 33 47q24 -16 55 -26q8 -3 19 -3q30 0 81 22q68 147 86.5 301t36.5 308q0 10 0.5 7.5t1.5 8.5 q-43 -14 -114.5 -27t-125.5 -16q-50 23 -71 52q-5 16 -5 34q0 43 33 92q73 18 147.5 33t145.5 38q16 374 66 717q86 208 282 291q34 5 72 5q57 0 122 -11q110 -18 147 -49q52 -87 52 -173q0 -11 -1 -21q-11 -54 -57 -77q-15 -6 -41 -6q-27 0 -66 6q-75 13 -89 40 q8 32 20.5 52.5t-18.5 44.5q-119 -6 -143 -237q-7 -129 -15 -259t-16 -257q157 50 270 50h4q48 -11 97 -38q33 -47 33 -96q0 -11 -2 -22q-49 -33 -89 -33q-17 0 -33 6q-27 -3 -54 -4t-52 -1q-63 -16 -107 -27t-85 -20q-15 -144 -29 -288t-27 -286q-19 -56 -35 -111t-33 -110 q-54 -76 -118 -85q-37 -13 -94 -13q-62 0 -147 16q-140 25 -140 101q0 11 3 24zM-55 -297q10 38 33 47q24 -16 55 -26q8 -3 19 -3q30 0 81 22q68 147 86.5 301t36.5 308q0 10 0.5 7.5t1.5 8.5q-43 -14 -114.5 -27t-125.5 -16q-50 23 -71 52q-5 16 -5 34q0 43 33 92 q73 18 147.5 33t145.5 38q16 374 66 717q86 208 282 291q34 5 72 5q57 0 122 -11q110 -18 147 -49q52 -87 52 -173q0 -11 -1 -21q-11 -54 -57 -77q-15 -6 -41 -6q-27 0 -66 6q-75 13 -89 40q8 32 20.5 52.5t-18.5 44.5q-119 -6 -143 -237q-7 -129 -15 -259t-16 -257 q157 50 270 50h4q48 -11 97 -38q33 -47 33 -96q0 -11 -2 -22q-49 -33 -89 -33q-17 0 -33 6q-27 -3 -54 -4t-52 -1q-63 -16 -107 -27t-85 -20q-15 -144 -29 -288t-27 -286q-19 -56 -35 -111t-33 -110q-54 -76 -118 -85q-37 -13 -94 -13q-62 0 -147 16q-140 25 -140 101 q0 11 3 24z" />
<glyph unicode="&#xfb04;" horiz-adv-x="2470" d="M1957 447q6 128 28.5 254.5t55.5 253.5q36 135 72.5 270t99.5 272q73 9 124 9q79 0 102 -22q34 -27 34 -65q0 -18 -8 -40q-70 -192 -130.5 -430.5t-94.5 -428.5q-6 -62 -6 -99q0 -14 1 -25q3 -39 23 -123q28 -67 47.5 -89t66.5 -34q64 7 101 14.5t76 42.5q-1 15 9.5 9.5 t30.5 -26.5q3 -12 3 -23q0 -48 -43 -93q-69 -41 -99 -66q-26 -22 -104 -22q-12 0 -26 1q-182 2 -306 148q-59 117 -59 261q0 25 2 51zM941 -297q10 38 33 47q24 -16 55 -26q8 -3 19 -3q30 0 81 22q68 147 86.5 301t36.5 308q0 10 0.5 7.5t1.5 8.5q-43 -14 -114.5 -27 t-125.5 -16q-50 23 -71 52q-5 16 -5 34q0 43 33 92q73 18 147.5 33t145.5 38q16 374 66 717q86 208 282 291q34 5 72 5q57 0 122 -11q110 -18 147 -49q52 -87 52 -173q0 -11 -1 -21q-11 -54 -57 -77q-15 -6 -41 -6q-27 0 -66 6q-75 13 -89 40q8 32 20.5 52.5t-18.5 44.5 q-119 -6 -143 -237q-7 -129 -15 -259t-16 -257q157 50 270 50h4q48 -11 97 -38q33 -47 33 -96q0 -11 -2 -22q-49 -33 -89 -33q-17 0 -33 6q-27 -3 -54 -4t-52 -1q-63 -16 -107 -27t-85 -20q-15 -144 -29 -288t-27 -286q-19 -56 -35 -111t-33 -110q-54 -76 -118 -85 q-37 -13 -94 -13q-62 0 -147 16q-140 25 -140 101q0 11 3 24zM-55 -297q10 38 33 47q24 -16 55 -26q8 -3 19 -3q30 0 81 22q68 147 86.5 301t36.5 308q0 10 0.5 7.5t1.5 8.5q-43 -14 -114.5 -27t-125.5 -16q-50 23 -71 52q-5 16 -5 34q0 43 33 92q73 18 147.5 33t145.5 38 q16 374 66 717q86 208 282 291q34 5 72 5q57 0 122 -11q110 -18 147 -49q52 -87 52 -173q0 -11 -1 -21q-11 -54 -57 -77q-15 -6 -41 -6q-27 0 -66 6q-75 13 -89 40q8 32 20.5 52.5t-18.5 44.5q-119 -6 -143 -237q-7 -129 -15 -259t-16 -257q157 50 270 50h4q48 -11 97 -38 q33 -47 33 -96q0 -11 -2 -22q-49 -33 -89 -33q-17 0 -33 6q-27 -3 -54 -4t-52 -1q-63 -16 -107 -27t-85 -20q-15 -144 -29 -288t-27 -286q-19 -56 -35 -111t-33 -110q-54 -76 -118 -85q-37 -13 -94 -13q-62 0 -147 16q-140 25 -140 101q0 11 3 24z" />
</font>
</defs>
</svg>
